<svg width="27" height="27" viewBox="0 0 27 27" fill="none" xmlns="http://www.w3.org/2000/svg">
<circle cx="13.8501" cy="13.1508" r="12.5984" fill="#FEFAF5" stroke="#FFF8F6" stroke-width="0.646071"/>
<path d="M8.31104 13.5454C8.31104 13.3001 8.49419 13.0973 8.73183 13.0653L8.7979 13.0608H18.5351C18.804 13.0608 19.022 13.2778 19.022 13.5454C19.022 13.7907 18.8388 13.9934 18.6012 14.0255L18.5351 14.0299H8.7979C8.52901 14.0299 8.31104 13.813 8.31104 13.5454Z" fill="#FE4E26"/>
<path d="M14.2644 9.9966C14.0739 9.80778 14.0732 9.50098 14.263 9.31134C14.4354 9.13894 14.7059 9.12272 14.8968 9.26306L14.9515 9.30986L18.8788 13.2018C19.0526 13.374 19.0684 13.6441 18.9262 13.8341L18.8789 13.8885L14.9515 17.7811C14.761 17.9699 14.4527 17.9693 14.263 17.7797C14.0905 17.6073 14.0753 17.3381 14.2172 17.1487L14.2644 17.0944L17.8451 13.545L14.2644 9.9966Z" fill="#FE4E26"/>
</svg>
