<svg width="22" height="24" viewBox="0 0 22 24" fill="none" xmlns="http://www.w3.org/2000/svg">
<mask id="mask0" mask-type="alpha" maskUnits="userSpaceOnUse" x="13" y="2" width="8" height="9">
<path fill-rule="evenodd" clip-rule="evenodd" d="M13.3848 2.3938H20.8206V10.5513H13.3848V2.3938Z" fill="white"/>
</mask>
<g mask="url(#mask0)">
<path fill-rule="evenodd" clip-rule="evenodd" d="M20.1673 10.5513C19.839 10.5513 19.5568 10.2808 19.5194 9.91462C19.1893 6.6871 16.9061 4.18233 13.9653 3.82382C13.6074 3.77985 13.3488 3.42612 13.3889 3.03224C13.428 2.63932 13.7476 2.34964 14.1099 2.39936C17.6611 2.83243 20.4189 5.85632 20.8169 9.75401C20.8569 10.1479 20.5992 10.5026 20.2413 10.5465C20.2169 10.5494 20.1916 10.5513 20.1673 10.5513Z" fill="#FFF8F6"/>
</g>
<path fill-rule="evenodd" clip-rule="evenodd" d="M17.0844 10.5615C16.7779 10.5615 16.5053 10.3244 16.4444 9.98219C16.1936 8.56729 15.2 7.47647 13.9129 7.20209C13.5585 7.12657 13.3277 6.75085 13.3965 6.36175C13.4653 5.97265 13.8136 5.71835 14.162 5.79483C15.9741 6.18106 17.3735 7.71643 17.7262 9.70686C17.795 10.0969 17.5642 10.4726 17.2107 10.5482C17.168 10.5568 17.1262 10.5615 17.0844 10.5615Z" fill="#FFF8F6"/>
<mask id="mask1" mask-type="alpha" maskUnits="userSpaceOnUse" x="2" y="2" width="19" height="20">
<path fill-rule="evenodd" clip-rule="evenodd" d="M2.62708 2.39331H20.479V21.9922H2.62708V2.39331Z" fill="white"/>
</mask>
<g mask="url(#mask1)">
<path fill-rule="evenodd" clip-rule="evenodd" d="M4.68137 5.3202C4.68311 5.3202 4.63957 5.36991 4.58471 5.42919C4.37397 5.65385 3.9377 6.12134 3.93334 7.09935C3.92638 8.46741 4.74581 11.0076 8.69147 15.3383C12.618 19.6481 14.9282 20.5582 16.1779 20.5582H16.1961C17.087 20.5524 17.5119 20.0735 17.7166 19.8431C17.7784 19.7733 17.8289 19.7207 17.8646 19.6892C18.7328 18.7303 19.1769 18.018 19.1726 17.5601C19.1674 17.0936 18.6388 16.5429 17.9082 15.779C17.6756 15.5372 17.4231 15.2724 17.1566 14.9798C16.4652 14.2236 16.1247 14.3527 15.3715 14.6433C14.3309 15.0439 12.9053 15.5926 10.6839 13.1519C8.46157 10.7131 8.95968 9.1481 9.32281 8.0047C9.58579 7.1787 9.70597 6.80298 9.01541 6.04391C8.74546 5.74754 8.5025 5.46647 8.2787 5.20835C7.58728 4.41103 7.0883 3.83455 6.66595 3.82785H6.65899C6.24187 3.82785 5.59398 4.31734 4.67702 5.32402C4.67963 5.32116 4.6805 5.3202 4.68137 5.3202ZM16.1779 21.9922C14.0078 21.9922 11.1785 20.0955 7.76843 16.3527C4.34439 12.5945 2.61409 9.47888 2.62715 7.0917C2.63499 5.51427 3.38824 4.70644 3.67125 4.40338C3.68606 4.3833 3.73656 4.32881 3.75398 4.30969C5.0036 2.9378 5.86222 2.37375 6.68253 2.39383C7.65522 2.40817 8.34839 3.20835 9.2253 4.22078C9.44213 4.4703 9.67638 4.74276 9.9385 5.02957C11.209 6.42536 10.8476 7.56397 10.5559 8.47793C10.2389 9.47506 9.96462 10.3355 11.607 12.1385C13.2493 13.9416 14.0322 13.6404 14.9396 13.2896C15.7729 12.9703 16.8075 12.5706 18.0806 13.9664C18.3392 14.2504 18.5831 14.5047 18.8095 14.7408C19.7351 15.7083 20.4666 16.4722 20.4788 17.5429C20.4884 18.4549 19.9833 19.3861 18.7363 20.7551L18.1842 20.344L18.6519 20.844C18.3758 21.1547 17.6417 21.9826 16.204 21.9922H16.1779Z" fill="#FFF8F6"/>
</g>
</svg>
