<svg width="45" height="45" viewBox="0 0 45 45" fill="none" xmlns="http://www.w3.org/2000/svg">
<circle cx="22.5" cy="22.5" r="22.5" fill="#FE4E26"/>
<path fill-rule="evenodd" clip-rule="evenodd" d="M16.8485 28.9384C16.6235 28.7133 16.4971 28.4081 16.4971 28.0898C16.4971 27.7716 16.6235 27.4664 16.8485 27.2413L27.0309 17.059C27.2559 16.8339 27.5611 16.7075 27.8794 16.7075C28.1977 16.7075 28.5029 16.8339 28.7279 17.059C28.953 17.284 29.0794 17.5892 29.0794 17.9075C29.0794 18.2258 28.953 18.531 28.7279 18.756L18.5456 28.9384C18.3205 29.1634 18.0153 29.2898 17.6971 29.2898C17.3788 29.2898 17.0736 29.1634 16.8485 28.9384Z" fill="#FFF8F6"/>
<path fill-rule="evenodd" clip-rule="evenodd" d="M16.8487 17.0595C17.0738 16.8344 17.379 16.708 17.6973 16.708C18.0155 16.708 18.3208 16.8344 18.5458 17.0595L28.7281 27.2418C28.9532 27.4668 29.0796 27.7721 29.0796 28.0903C29.0796 28.4086 28.9532 28.7138 28.7281 28.9389C28.5031 29.1639 28.1979 29.2903 27.8796 29.2903C27.5613 29.2903 27.2561 29.1639 27.0311 28.9389L16.8487 18.7565C16.6237 18.5315 16.4973 18.2263 16.4973 17.908C16.4973 17.5897 16.6237 17.2845 16.8487 17.0595Z" fill="#FFF8F6"/>
<path fill-rule="evenodd" clip-rule="evenodd" d="M16.8487 16.8485C17.0738 16.6235 17.379 16.4971 17.6973 16.4971C18.0155 16.4971 18.3208 16.6235 18.5458 16.8485L28.7281 27.0309C28.9532 27.2559 29.0796 27.5611 29.0796 27.8794C29.0796 28.1977 28.9532 28.5029 28.7281 28.7279C28.5031 28.953 28.1979 29.0794 27.8796 29.0794C27.5613 29.0794 27.2561 28.953 27.0311 28.7279L16.8487 18.5456C16.6237 18.3205 16.4973 18.0153 16.4973 17.6971C16.4973 17.3788 16.6237 17.0736 16.8487 16.8485Z" fill="#FFF8F6"/>
</svg>
