<svg width="32" height="32" viewBox="0 0 32 32" fill="none" xmlns="http://www.w3.org/2000/svg">
<path opacity="0.1" fill-rule="evenodd" clip-rule="evenodd" d="M0 16C0 7.16344 7.16344 0 16 0C24.8366 0 32 7.16344 32 16C32 24.8366 24.8366 32 16 32C7.16344 32 0 24.8366 0 16Z" fill="#FF2F00"/>
<path d="M17.1263 24.8886H13.8079C13.8079 23.4421 13.8079 20.3449 13.8079 19.5281C13.8079 18.7113 13.8079 17.8263 13.8079 17.486H11V14.4228H13.8079C13.8079 14.4228 13.8079 12.8912 13.8079 11.8702C13.8079 10.8492 14.1666 10.0834 14.3184 9.82811C14.5737 9.39881 14.9903 8.91446 15.5947 8.5518C16.1354 8.22742 16.5022 8.13043 17.1263 8.04127C17.6197 7.97078 17.9056 8.00418 18.4026 8.04127C19.0073 8.0864 19.9342 8.29654 19.9342 8.29654V10.8492C19.9342 10.8492 18.6579 10.8491 18.1474 10.8492C17.6368 10.8492 17.3234 11.1044 17.1263 11.3597C16.8752 11.685 16.871 12.3807 16.871 12.3807V14.4228H19.9342L19.4237 17.486H16.871V25.3892" stroke="#FE4E26"/>
</svg>
