<svg width="45" height="45" viewBox="0 0 45 45" fill="none" xmlns="http://www.w3.org/2000/svg">
<circle cx="22.5" cy="22.5" r="22.5" fill="#F7F5F5"/>
<path fill-rule="evenodd" clip-rule="evenodd" d="M13.6001 17.0002C13.6001 16.6819 13.7265 16.3767 13.9516 16.1516C14.1766 15.9266 14.4818 15.8002 14.8001 15.8002H29.2001C29.5184 15.8002 29.8236 15.9266 30.0486 16.1516C30.2737 16.3767 30.4001 16.6819 30.4001 17.0002C30.4001 17.3184 30.2737 17.6237 30.0486 17.8487C29.8236 18.0737 29.5184 18.2002 29.2001 18.2002H14.8001C14.4818 18.2002 14.1766 18.0737 13.9516 17.8487C13.7265 17.6237 13.6001 17.3184 13.6001 17.0002Z" fill="#242424"/>
<path fill-rule="evenodd" clip-rule="evenodd" d="M13.6001 23.0002C13.6001 22.6819 13.7265 22.3767 13.9516 22.1516C14.1766 21.9266 14.4818 21.8002 14.8001 21.8002H29.2001C29.5184 21.8002 29.8236 21.9266 30.0486 22.1516C30.2737 22.3767 30.4001 22.6819 30.4001 23.0002C30.4001 23.3184 30.2737 23.6237 30.0486 23.8487C29.8236 24.0737 29.5184 24.2002 29.2001 24.2002H14.8001C14.4818 24.2002 14.1766 24.0737 13.9516 23.8487C13.7265 23.6237 13.6001 23.3184 13.6001 23.0002Z" fill="#242424"/>
<path fill-rule="evenodd" clip-rule="evenodd" d="M13.6001 29.0002C13.6001 28.6819 13.7265 28.3767 13.9516 28.1516C14.1766 27.9266 14.4818 27.8002 14.8001 27.8002H29.2001C29.5184 27.8002 29.8236 27.9266 30.0486 28.1516C30.2737 28.3767 30.4001 28.6819 30.4001 29.0002C30.4001 29.3184 30.2737 29.6237 30.0486 29.8487C29.8236 30.0737 29.5184 30.2002 29.2001 30.2002H14.8001C14.4818 30.2002 14.1766 30.0737 13.9516 29.8487C13.7265 29.6237 13.6001 29.3184 13.6001 29.0002Z" fill="#242424"/>
</svg>
