<svg width="32" height="32" viewBox="0 0 32 32" fill="none" xmlns="http://www.w3.org/2000/svg">
<path opacity="0.1" fill-rule="evenodd" clip-rule="evenodd" d="M0 16C0 7.16344 7.16344 0 16 0C24.8366 0 32 7.16344 32 16C32 24.8366 24.8366 32 16 32C7.16344 32 0 24.8366 0 16Z" fill="#FF2F00"/>
<path d="M18.7986 12.7886C19.9125 12.7886 20.9807 13.1878 21.7683 13.8985C22.5559 14.6091 22.9984 15.573 22.9984 16.578V20.9991H20.1985V16.578C20.1985 16.243 20.051 15.9217 19.7885 15.6849C19.526 15.448 19.1699 15.3149 18.7986 15.3149C18.4273 15.3149 18.0713 15.448 17.8087 15.6849C17.5462 15.9217 17.3987 16.243 17.3987 16.578V20.9991H14.5989V16.578C14.5989 15.573 15.0413 14.6091 15.829 13.8985C16.6166 13.1878 17.6848 12.7886 18.7986 12.7886V12.7886Z" stroke="#FE4E26" stroke-width="0.965431" stroke-linecap="round" stroke-linejoin="round"/>
<path d="M11.7998 13.4175H9V20.9964H11.7998V13.4175Z" stroke="#FE4E26" stroke-width="0.965431" stroke-linecap="round" stroke-linejoin="round"/>
<path d="M10.3999 11.5263C11.1731 11.5263 11.7998 10.9608 11.7998 10.2632C11.7998 9.56554 11.1731 9 10.3999 9C9.62676 9 9 9.56554 9 10.2632C9 10.9608 9.62676 11.5263 10.3999 11.5263Z" stroke="#FE4E26" stroke-width="0.965431" stroke-linecap="round" stroke-linejoin="round"/>
</svg>
