<svg width="48" height="41" viewBox="0 0 48 41" fill="none" xmlns="http://www.w3.org/2000/svg">
<g clip-path="url(#clip0)">
<path d="M13.1843 16.0523C13.3671 16.2326 13.9049 15.9952 14.088 15.8149L14.3894 15.518C14.5724 15.3377 14.8134 14.8079 14.6303 14.6275L10.0998 10.3923L8.91528 11.6216L13.1843 16.0523Z" fill="#FE4E26"/>
<path d="M5.6717 6.25041C6.26106 5.2407 5.94955 4.01678 5.02133 3.10244C3.92442 2.02224 1.55603 0.965532 0.459423 2.04608C-0.637485 3.12662 0.435223 5.45962 1.53183 6.53982C2.44228 7.43672 3.65543 7.74967 4.66957 7.21274L6.81635 9.44168L7.95042 8.38159L5.6717 6.25041Z" fill="#FE4E26"/>
<path d="M11.2529 6.21982L2.26039 14.6268C2.07731 14.8071 2.31836 15.3369 2.50138 15.5173L2.80272 15.8141C2.93977 15.9491 3.27518 16.1156 3.51207 16.1156C3.5918 16.1156 3.66072 16.0961 3.70668 16.0515L12.2725 7.16036C12.5118 7.27622 12.7623 7.34164 13.0159 7.36419C13.7757 7.43266 14.5679 7.1046 15.205 6.47701C17.3648 4.34986 17.7523 3.88145 17.0893 3.0618L14.54 5.46868C14.4831 5.52476 14.4029 5.55901 14.3218 5.55901C14.2492 5.55901 14.1824 5.53181 14.133 5.48278L14.0648 5.41597C14.015 5.36694 13.9878 5.30079 13.9878 5.22961C13.9881 5.15036 14.0225 5.07145 14.0818 5.01269L16.396 2.33819C16.3415 2.28447 16.2893 2.2331 16.2307 2.17534C16.1315 2.07763 16.0391 1.9863 15.9518 1.89933L13.2266 4.18936C13.1768 4.23905 13.0967 4.27297 13.0162 4.27297C12.9436 4.27297 12.8768 4.24577 12.8274 4.19674L12.7593 4.12992C12.7095 4.0809 12.6822 4.01475 12.6822 3.94357C12.6826 3.86432 12.717 3.78541 12.7763 3.72665L15.2074 1.22777C14.4231 0.666343 13.9465 1.13442 11.8631 3.18638C11.1701 3.86902 10.8371 4.73231 10.9908 5.53785C11.0365 5.77257 11.1224 6.00123 11.2529 6.21982Z" fill="#FE4E26"/>
<path d="M5.19438 29.2689C3.70076 29.2689 2.45924 28.7769 1.46984 27.7929C0.489945 26.8183 0 25.6046 0 24.1521C0 22.6901 0.489945 21.4765 1.46984 20.5113C2.45924 19.5273 3.70076 19.0353 5.19438 19.0353C6.09816 19.0353 6.93059 19.2461 7.69168 19.6678C8.46227 20.0802 9.06162 20.6425 9.48973 21.3547L7.79157 22.3246C7.54422 21.8842 7.19222 21.5421 6.73557 21.2985C6.27892 21.0454 5.76519 20.9189 5.19438 20.9189C4.224 20.9189 3.43914 21.2188 2.83978 21.8186C2.24995 22.4277 1.95503 23.2056 1.95503 24.1521C1.95503 25.0892 2.24995 25.8624 2.83978 26.4715C3.43914 27.0713 4.224 27.3712 5.19438 27.3712C5.76519 27.3712 6.27892 27.2493 6.73557 27.0057C7.20173 26.7526 7.55373 26.4106 7.79157 25.9795L9.48973 26.9494C9.06162 27.6617 8.46227 28.2286 7.69168 28.6504C6.93059 29.0627 6.09816 29.2689 5.19438 29.2689ZM16.7347 28.2005C16.0117 28.9128 15.1174 29.2689 14.0519 29.2689C12.9864 29.2689 12.0922 28.9128 11.3691 28.2005C10.6461 27.4883 10.2846 26.6074 10.2846 25.5578C10.2846 24.5176 10.6461 23.6413 11.3691 22.9291C12.1017 22.2075 12.9959 21.8467 14.0519 21.8467C15.1079 21.8467 16.0022 22.2075 16.7347 22.9291C17.4673 23.6507 17.8336 24.5269 17.8336 25.5578C17.8336 26.598 17.4673 27.4789 16.7347 28.2005ZM12.6677 26.9494C13.0387 27.3149 13.5001 27.4977 14.0519 27.4977C14.6037 27.4977 15.0651 27.3149 15.4362 26.9494C15.8072 26.584 15.9927 26.1201 15.9927 25.5578C15.9927 24.9955 15.8072 24.5316 15.4362 24.1661C15.0651 23.8006 14.6037 23.6179 14.0519 23.6179C13.5001 23.6179 13.0387 23.8006 12.6677 24.1661C12.3062 24.541 12.1254 25.0049 12.1254 25.5578C12.1254 26.1107 12.3062 26.5746 12.6677 26.9494ZM23.8378 25.8389V22.0435H25.6786V29.0721H23.8378V28.2849C23.4002 28.9409 22.6914 29.2689 21.7115 29.2689C20.9314 29.2689 20.2845 29.0112 19.7707 28.4957C19.2665 27.9709 19.0144 27.2587 19.0144 26.359V22.0435H20.8553V26.1341C20.8553 26.5933 20.979 26.9494 21.2263 27.2025C21.4832 27.4555 21.8304 27.582 22.268 27.582C22.7532 27.582 23.1338 27.4368 23.4097 27.1463C23.6951 26.8464 23.8378 26.4106 23.8378 25.8389ZM31.3318 21.8467C32.1214 21.8467 32.7636 22.1044 33.2583 22.6198C33.772 23.1446 34.0289 23.8569 34.0289 24.7565V29.0721H32.188V24.9814C32.188 24.5222 32.0596 24.1661 31.8027 23.9131C31.5554 23.6601 31.2129 23.5336 30.7753 23.5336C30.2901 23.5336 29.9048 23.6835 29.6194 23.9834C29.3435 24.2739 29.2055 24.705 29.2055 25.2766V29.0721H27.3647V22.0435H29.2055V22.8307C29.6432 22.1747 30.3519 21.8467 31.3318 21.8467ZM39.6821 22.0435V23.7866H38.0695V26.7105C38.0695 26.9541 38.1314 27.1322 38.255 27.2447C38.3787 27.3571 38.5595 27.4227 38.7973 27.4415C39.0351 27.4508 39.3301 27.4461 39.6821 27.4274V29.0721C38.4358 29.2127 37.5463 29.1002 37.0135 28.7347C36.4903 28.3598 36.2286 27.6851 36.2286 26.7105V23.7866H34.9871V22.0435H36.2286V20.6237L38.0695 20.0755V22.0435H39.6821ZM44.2014 26.7667L45.7854 22.0435H47.7547L45.1575 29.0721C44.7865 30.0842 44.2918 30.8152 43.6734 31.265C43.0645 31.7242 42.3034 31.9304 41.3901 31.8835V30.1967C41.8753 30.206 42.2654 30.1029 42.5603 29.8874C42.8552 29.6719 43.0883 29.3251 43.2596 28.8472L40.3341 22.0435H42.3463L44.2014 26.7667Z" fill="black"/>
<path d="M6.03632 35.6851C6.91157 36.1818 7.34919 36.9315 7.34919 37.9343C7.34919 38.7683 7.04951 39.4524 6.45016 39.9866C5.85081 40.5208 5.11351 40.7879 4.23827 40.7879H0V30.9479H3.93859C4.7853 30.9479 5.50357 31.2103 6.0934 31.7351C6.68324 32.2599 6.97816 32.9206 6.97816 33.7171C6.97816 34.5324 6.66422 35.1884 6.03632 35.6851ZM3.93859 32.7612H1.9693V34.926H3.93859C4.24303 34.926 4.49513 34.823 4.69492 34.6168C4.90421 34.4106 5.00886 34.1529 5.00886 33.8436C5.00886 33.5344 4.90897 33.2767 4.70919 33.0705C4.50941 32.8643 4.25254 32.7612 3.93859 32.7612ZM1.9693 38.9745H4.23827C4.57124 38.9745 4.84713 38.8667 5.06595 38.6512C5.28476 38.4263 5.39416 38.1451 5.39416 37.8078C5.39416 37.4798 5.28476 37.208 5.06595 36.9924C4.84713 36.7675 4.57124 36.6551 4.23827 36.6551H1.9693V38.9745ZM9.46785 32.9159C9.16342 32.9159 8.89704 32.8081 8.66871 32.5926C8.4499 32.3676 8.3405 32.1052 8.3405 31.8054C8.3405 31.5055 8.4499 31.2431 8.66871 31.0182C8.89704 30.7932 9.16342 30.6808 9.46785 30.6808C9.78179 30.6808 10.0482 30.7932 10.267 31.0182C10.4953 31.2431 10.6095 31.5055 10.6095 31.8054C10.6095 32.1052 10.4953 32.3676 10.267 32.5926C10.0482 32.8081 9.78179 32.9159 9.46785 32.9159ZM10.3954 40.7879H8.55455V33.7593H10.3954V40.7879ZM16.1616 33.7593V35.5024H14.5491V38.4263C14.5491 38.6699 14.6109 38.848 14.7346 38.9604C14.8583 39.0729 15.039 39.1385 15.2769 39.1572C15.5147 39.1666 15.8096 39.1619 16.1616 39.1432V40.7879C14.9153 40.9284 14.0258 40.816 13.4931 40.4505C12.9698 40.0756 12.7082 39.4009 12.7082 38.4263V35.5024H11.4667V33.7593H12.7082V32.3395L14.5491 31.7913V33.7593H16.1616ZM24.1719 38.0186H18.792C19.0299 38.8995 19.7006 39.34 20.8042 39.34C21.5082 39.34 22.0409 39.1057 22.4024 38.6371L23.8865 39.4806C23.1825 40.4833 22.1456 40.9847 20.7756 40.9847C19.5959 40.9847 18.6493 40.6332 17.9358 39.9304C17.2223 39.2275 16.8656 38.3419 16.8656 37.2736C16.8656 36.224 17.2176 35.3431 17.9216 34.6308C18.616 33.9186 19.5198 33.5625 20.6329 33.5625C21.6889 33.5625 22.5499 33.9186 23.2158 34.6308C23.9008 35.3431 24.2433 36.224 24.2433 37.2736C24.2433 37.4704 24.2195 37.7187 24.1719 38.0186ZM18.7635 36.6129H22.4024C22.2978 36.1537 22.0837 35.8023 21.7603 35.5586C21.4463 35.315 21.0705 35.1931 20.6329 35.1931C20.1382 35.1931 19.7291 35.3196 19.4057 35.5727C19.0822 35.8163 18.8682 36.1631 18.7635 36.6129ZM26.9479 35.7554C26.9479 36.0553 27.3807 36.313 28.2465 36.5286C28.5509 36.5942 28.8268 36.6738 29.0741 36.7675C29.3215 36.8519 29.5688 36.9784 29.8162 37.1471C30.073 37.3064 30.2728 37.5219 30.4155 37.7937C30.5582 38.0655 30.6296 38.3794 30.6296 38.7355C30.6296 39.4571 30.3537 40.0147 29.8019 40.4083C29.2501 40.7926 28.5699 40.9847 27.7613 40.9847C26.2962 40.9847 25.2973 40.4271 24.7645 39.3119L26.3628 38.4263C26.5816 39.0354 27.0478 39.34 27.7613 39.34C28.4177 39.34 28.7459 39.1385 28.7459 38.7355C28.7459 38.4356 28.313 38.1779 27.4473 37.9624C27.1239 37.878 26.848 37.7937 26.6196 37.7094C26.3913 37.625 26.144 37.5032 25.8776 37.3439C25.6112 37.1752 25.4067 36.9643 25.264 36.7113C25.1308 36.4489 25.0642 36.1443 25.0642 35.7976C25.0642 35.1041 25.3211 34.5606 25.8348 34.167C26.358 33.764 27.0049 33.5625 27.7755 33.5625C28.3559 33.5625 28.8839 33.6937 29.3595 33.9561C29.8352 34.2091 30.211 34.5746 30.4869 35.0526L28.9172 35.896C28.6888 35.418 28.3083 35.1791 27.7755 35.1791C27.5377 35.1791 27.3379 35.2353 27.1762 35.3478C27.024 35.4508 26.9479 35.5867 26.9479 35.7554Z" fill="#FE4E26"/>
</g>
<defs>
<clipPath id="clip0">
<rect width="48" height="41" fill="white"/>
</clipPath>
</defs>
</svg>
