<svg width="32" height="32" viewBox="0 0 32 32" fill="none" xmlns="http://www.w3.org/2000/svg">
<path opacity="0.1" fill-rule="evenodd" clip-rule="evenodd" d="M0 16C0 7.16344 7.16344 0 16 0C24.8366 0 32 7.16344 32 16C32 24.8366 24.8366 32 16 32C7.16344 32 0 24.8366 0 16Z" fill="#FF2F00"/>
<path d="M23.9276 10.0068C23.2779 10.4634 22.5584 10.8126 21.797 11.041C21.3884 10.5729 20.8453 10.2411 20.2412 10.0906C19.6371 9.93999 19.0012 9.97786 18.4194 10.1991C17.8376 10.4203 17.3381 10.8141 16.9883 11.3274C16.6385 11.8406 16.4555 12.4485 16.4638 13.0688V13.7447C15.2714 13.7755 14.0898 13.512 13.0244 12.9778C11.9589 12.4436 11.0426 11.6551 10.3571 10.6827C10.3571 10.6827 7.64294 16.7661 13.7497 19.4698C12.3523 20.4148 10.6876 20.8886 9 20.8217C15.1068 24.2013 22.5706 20.8217 22.5706 13.0485C22.5699 12.8602 22.5518 12.6724 22.5163 12.4875C23.2088 11.8071 23.6975 10.9482 23.9276 10.0068Z" stroke="#FE4E26" stroke-width="1.2" stroke-linecap="round" stroke-linejoin="round"/>
</svg>
