<svg width="237" height="146" viewBox="0 0 237 146" fill="none" xmlns="http://www.w3.org/2000/svg">
<path d="M9.73333 14.6875C9.73333 14.8348 9.85272 14.9542 10 14.9542C10.1473 14.9542 10.2667 14.8348 10.2667 14.6875L9.73333 14.6875ZM10.2667 20.0625C10.2667 19.9152 10.1473 19.7958 10 19.7958C9.85272 19.7958 9.73333 19.9152 9.73333 20.0625L10.2667 20.0625ZM9.73333 25.4375C9.73333 25.5848 9.85272 25.7042 10 25.7042C10.1473 25.7042 10.2667 25.5848 10.2667 25.4375L9.73333 25.4375ZM10.2667 30.8125C10.2667 30.6652 10.1473 30.5458 10 30.5458C9.85272 30.5458 9.73333 30.6652 9.73333 30.8125L10.2667 30.8125ZM9.73333 36.1875C9.73333 36.3348 9.85272 36.4542 10 36.4542C10.1473 36.4542 10.2667 36.3348 10.2667 36.1875L9.73333 36.1875ZM10.2667 41.5625C10.2667 41.4152 10.1473 41.2958 10 41.2958C9.85272 41.2958 9.73333 41.4152 9.73333 41.5625L10.2667 41.5625ZM9.73333 46.9375C9.73333 47.0848 9.85272 47.2042 10 47.2042C10.1473 47.2042 10.2667 47.0848 10.2667 46.9375L9.73333 46.9375ZM10.2667 52.3125C10.2667 52.1652 10.1473 52.0458 10 52.0458C9.85272 52.0458 9.73333 52.1652 9.73333 52.3125L10.2667 52.3125ZM9.73333 57.6875C9.73333 57.8348 9.85272 57.9542 10 57.9542C10.1473 57.9542 10.2667 57.8348 10.2667 57.6875L9.73333 57.6875ZM10.2667 63.0625C10.2667 62.9152 10.1473 62.7958 10 62.7958C9.85272 62.7958 9.73333 62.9152 9.73333 63.0625L10.2667 63.0625ZM9.73333 68.4375C9.73333 68.5848 9.85272 68.7042 10 68.7042C10.1473 68.7042 10.2667 68.5848 10.2667 68.4375L9.73333 68.4375ZM10.2667 73.8125C10.2667 73.6652 10.1473 73.5458 10 73.5458C9.85272 73.5458 9.73333 73.6652 9.73333 73.8125L10.2667 73.8125ZM9.73333 79.1875C9.73333 79.3348 9.85272 79.4542 10 79.4542C10.1473 79.4542 10.2667 79.3348 10.2667 79.1875L9.73333 79.1875ZM10.2667 84.5625C10.2667 84.4152 10.1473 84.2958 10 84.2958C9.85272 84.2958 9.73333 84.4152 9.73333 84.5625L10.2667 84.5625ZM9.73333 89.9375C9.73333 90.0848 9.85272 90.2042 10 90.2042C10.1473 90.2042 10.2667 90.0848 10.2667 89.9375L9.73333 89.9375ZM10.2667 95.3125C10.2667 95.1652 10.1473 95.0458 10 95.0458C9.85272 95.0458 9.73333 95.1652 9.73333 95.3125L10.2667 95.3125ZM9.73333 100.687C9.73333 100.835 9.85272 100.954 10 100.954C10.1473 100.954 10.2667 100.835 10.2667 100.688L9.73333 100.687ZM10.2667 106.063C10.2667 105.915 10.1473 105.796 10 105.796C9.85272 105.796 9.73333 105.915 9.73333 106.062L10.2667 106.063ZM9.73333 111.437C9.73333 111.585 9.85272 111.704 10 111.704C10.1473 111.704 10.2667 111.585 10.2667 111.438L9.73333 111.437ZM10.2667 116.813C10.2667 116.665 10.1473 116.546 10 116.546C9.85272 116.546 9.73333 116.665 9.73333 116.812L10.2667 116.813ZM9.73333 122.188C9.73333 122.335 9.85272 122.454 10 122.454C10.1473 122.454 10.2667 122.335 10.2667 122.188L9.73333 122.188ZM10.2667 127.563C10.2667 127.415 10.1473 127.296 9.99999 127.296C9.85272 127.296 9.73333 127.415 9.73333 127.562L10.2667 127.563ZM9.73333 132.937C9.73333 133.085 9.85272 133.204 9.99999 133.204C10.1473 133.204 10.2667 133.085 10.2667 132.938L9.73333 132.937ZM10.2667 138.313C10.2667 138.165 10.1473 138.046 9.99999 138.046C9.85272 138.046 9.73333 138.165 9.73333 138.313L10.2667 138.313ZM9.73333 12L9.73333 14.6875L10.2667 14.6875L10.2667 12L9.73333 12ZM9.73333 20.0625L9.73333 25.4375L10.2667 25.4375L10.2667 20.0625L9.73333 20.0625ZM9.73333 30.8125L9.73333 36.1875L10.2667 36.1875L10.2667 30.8125L9.73333 30.8125ZM9.73333 41.5625L9.73333 46.9375L10.2667 46.9375L10.2667 41.5625L9.73333 41.5625ZM9.73333 52.3125L9.73333 57.6875L10.2667 57.6875L10.2667 52.3125L9.73333 52.3125ZM9.73333 63.0625L9.73333 68.4375L10.2667 68.4375L10.2667 63.0625L9.73333 63.0625ZM9.73333 73.8125L9.73333 79.1875L10.2667 79.1875L10.2667 73.8125L9.73333 73.8125ZM9.73333 84.5625L9.73333 89.9375L10.2667 89.9375L10.2667 84.5625L9.73333 84.5625ZM9.73333 95.3125L9.73333 100.687L10.2667 100.688L10.2667 95.3125L9.73333 95.3125ZM9.73333 106.062L9.73333 111.437L10.2667 111.438L10.2667 106.063L9.73333 106.062ZM9.73333 116.812L9.73333 122.188L10.2667 122.188L10.2667 116.813L9.73333 116.812ZM9.73333 127.562L9.73333 132.937L10.2667 132.938L10.2667 127.563L9.73333 127.562ZM9.73333 138.313L9.73333 141L10.2667 141L10.2667 138.313L9.73333 138.313Z" fill="#FE4E26"/>
<path d="M37.2 4.8H41.568C43.0827 4.8 44.3467 5.344 45.36 6.432C46.3733 7.50933 46.88 8.832 46.88 10.4C46.88 11.9573 46.3733 13.2853 45.36 14.384C44.3467 15.4613 43.0827 16 41.568 16H37.2V4.8ZM38.688 14.592H41.568C42.7093 14.592 43.6427 14.192 44.368 13.392C45.0933 12.5813 45.456 11.584 45.456 10.4C45.456 9.216 45.0933 8.21867 44.368 7.408C43.6427 6.608 42.7093 6.208 41.568 6.208H38.688V14.592ZM55.2924 14.992C54.4817 15.8027 53.4844 16.208 52.3004 16.208C51.1164 16.208 50.119 15.8027 49.3084 14.992C48.4977 14.1813 48.0924 13.184 48.0924 12C48.0924 10.816 48.4977 9.81867 49.3084 9.008C50.119 8.19733 51.1164 7.792 52.3004 7.792C53.4844 7.792 54.4817 8.19733 55.2924 9.008C56.1137 9.82933 56.5244 10.8267 56.5244 12C56.5244 13.1733 56.1137 14.1707 55.2924 14.992ZM52.3004 14.848C53.1004 14.848 53.7724 14.576 54.3164 14.032C54.8604 13.488 55.1324 12.8107 55.1324 12C55.1324 11.1893 54.8604 10.512 54.3164 9.968C53.7724 9.424 53.1004 9.152 52.3004 9.152C51.511 9.152 50.8444 9.424 50.3004 9.968C49.7564 10.512 49.4844 11.1893 49.4844 12C49.4844 12.8107 49.7564 13.488 50.3004 14.032C50.8444 14.576 51.511 14.848 52.3004 14.848ZM65.5169 14.096L67.2769 8H68.7329L66.2529 16H64.8289L62.9569 10.08L61.0849 16H59.6609L57.1809 8H58.6369L60.3969 14.08L62.2849 8H63.6289L65.5169 14.096ZM74.1494 7.792C75.088 7.792 75.84 8.09067 76.4054 8.688C76.9707 9.27467 77.2534 10.0747 77.2534 11.088V16H75.8614V11.168C75.8614 10.528 75.6854 10.0267 75.3334 9.664C74.9814 9.30133 74.496 9.12 73.8774 9.12C73.1627 9.12 72.5974 9.344 72.1814 9.792C71.7654 10.2293 71.5574 10.8853 71.5574 11.76V16H70.1654V8H71.5574V9.152C72.112 8.24533 72.976 7.792 74.1494 7.792ZM80.5886 16H79.1966V4.32H80.5886V16ZM89.4643 14.992C88.6536 15.8027 87.6563 16.208 86.4723 16.208C85.2883 16.208 84.2909 15.8027 83.4803 14.992C82.6696 14.1813 82.2643 13.184 82.2643 12C82.2643 10.816 82.6696 9.81867 83.4803 9.008C84.2909 8.19733 85.2883 7.792 86.4723 7.792C87.6563 7.792 88.6536 8.19733 89.4643 9.008C90.2856 9.82933 90.6962 10.8267 90.6962 12C90.6962 13.1733 90.2856 14.1707 89.4643 14.992ZM86.4723 14.848C87.2723 14.848 87.9443 14.576 88.4883 14.032C89.0323 13.488 89.3043 12.8107 89.3043 12C89.3043 11.1893 89.0323 10.512 88.4883 9.968C87.9443 9.424 87.2723 9.152 86.4723 9.152C85.6829 9.152 85.0163 9.424 84.4723 9.968C83.9283 10.512 83.6562 11.1893 83.6562 12C83.6562 12.8107 83.9283 13.488 84.4723 14.032C85.0163 14.576 85.6829 14.848 86.4723 14.848ZM98.9613 9.376V8H100.353V16H98.9613V14.624C98.2786 15.68 97.2706 16.208 95.9373 16.208C94.8066 16.208 93.8519 15.8027 93.0733 14.992C92.2839 14.1707 91.8893 13.1733 91.8893 12C91.8893 10.8373 92.2839 9.84533 93.0733 9.024C93.8626 8.20267 94.8173 7.792 95.9373 7.792C97.2706 7.792 98.2786 8.32 98.9613 9.376ZM96.1133 14.864C96.9239 14.864 97.6013 14.592 98.1453 14.048C98.6893 13.4827 98.9613 12.8 98.9613 12C98.9613 11.1893 98.6893 10.512 98.1453 9.968C97.6013 9.41333 96.9239 9.136 96.1133 9.136C95.3133 9.136 94.6413 9.41333 94.0973 9.968C93.5533 10.512 93.2812 11.1893 93.2812 12C93.2812 12.8 93.5533 13.4827 94.0973 14.048C94.6413 14.592 95.3133 14.864 96.1133 14.864ZM109.086 9.376V4.8H110.478V16H109.086V14.624C108.404 15.68 107.396 16.208 106.062 16.208C104.932 16.208 103.977 15.8027 103.198 14.992C102.409 14.1707 102.014 13.1733 102.014 12C102.014 10.8373 102.409 9.84533 103.198 9.024C103.988 8.20267 104.942 7.792 106.062 7.792C107.396 7.792 108.404 8.32 109.086 9.376ZM106.238 14.864C107.049 14.864 107.726 14.592 108.27 14.048C108.814 13.4827 109.086 12.8 109.086 12C109.086 11.1893 108.814 10.512 108.27 9.968C107.726 9.41333 107.049 9.136 106.238 9.136C105.438 9.136 104.766 9.41333 104.222 9.968C103.678 10.512 103.406 11.1893 103.406 12C103.406 12.8 103.678 13.4827 104.222 14.048C104.766 14.592 105.438 14.864 106.238 14.864ZM123.339 14.992C122.529 15.8027 121.531 16.208 120.347 16.208C119.163 16.208 118.166 15.8027 117.355 14.992C116.545 14.1813 116.139 13.184 116.139 12C116.139 10.816 116.545 9.81867 117.355 9.008C118.166 8.19733 119.163 7.792 120.347 7.792C121.531 7.792 122.529 8.19733 123.339 9.008C124.161 9.82933 124.571 10.8267 124.571 12C124.571 13.1733 124.161 14.1707 123.339 14.992ZM120.347 14.848C121.147 14.848 121.819 14.576 122.363 14.032C122.907 13.488 123.179 12.8107 123.179 12C123.179 11.1893 122.907 10.512 122.363 9.968C121.819 9.424 121.147 9.152 120.347 9.152C119.558 9.152 118.891 9.424 118.347 9.968C117.803 10.512 117.531 11.1893 117.531 12C117.531 12.8107 117.803 13.488 118.347 14.032C118.891 14.576 119.558 14.848 120.347 14.848ZM131.732 12.24V8H133.124V16H131.732V14.848C131.178 15.7547 130.314 16.208 129.14 16.208C128.202 16.208 127.45 15.9147 126.884 15.328C126.319 14.7307 126.036 13.9253 126.036 12.912V8H127.428V12.832C127.428 13.472 127.604 13.9733 127.956 14.336C128.308 14.6987 128.794 14.88 129.412 14.88C130.127 14.88 130.692 14.6613 131.108 14.224C131.524 13.776 131.732 13.1147 131.732 12.24ZM136.636 8V9.344C137.094 8.352 137.926 7.856 139.132 7.856V9.312C138.449 9.28 137.862 9.46133 137.372 9.856C136.881 10.2507 136.636 10.8853 136.636 11.76V16H135.243V8H136.636ZM145.95 8.688H144.35L145.39 4.8H146.59L145.95 8.688ZM199.63 4.784H201.23L200.19 8.672H198.99L199.63 4.784ZM213.821 9.376V8H215.213V16H213.821V14.624C213.138 15.68 212.13 16.208 210.797 16.208C209.666 16.208 208.711 15.8027 207.933 14.992C207.143 14.1707 206.749 13.1733 206.749 12C206.749 10.8373 207.143 9.84533 207.933 9.024C208.722 8.20267 209.677 7.792 210.797 7.792C212.13 7.792 213.138 8.32 213.821 9.376ZM210.973 14.864C211.783 14.864 212.461 14.592 213.005 14.048C213.549 13.4827 213.821 12.8 213.821 12C213.821 11.1893 213.549 10.512 213.005 9.968C212.461 9.41333 211.783 9.136 210.973 9.136C210.173 9.136 209.501 9.41333 208.957 9.968C208.413 10.512 208.141 11.1893 208.141 12C208.141 12.8 208.413 13.4827 208.957 14.048C209.501 14.592 210.173 14.864 210.973 14.864ZM221.738 7.792C222.858 7.792 223.812 8.20267 224.602 9.024C225.391 9.84533 225.786 10.8373 225.786 12C225.786 13.1733 225.391 14.1707 224.602 14.992C223.823 15.8027 222.868 16.208 221.738 16.208C220.415 16.208 219.407 15.68 218.714 14.624V19.2H217.322V8H218.714V9.376C219.407 8.32 220.415 7.792 221.738 7.792ZM221.562 14.864C222.362 14.864 223.034 14.592 223.578 14.048C224.122 13.4827 224.394 12.8 224.394 12C224.394 11.1893 224.122 10.512 223.578 9.968C223.034 9.41333 222.362 9.136 221.562 9.136C220.751 9.136 220.074 9.41333 219.53 9.968C218.986 10.512 218.714 11.1893 218.714 12C218.714 12.8 218.986 13.4827 219.53 14.048C220.074 14.592 220.751 14.864 221.562 14.864ZM231.863 7.792C232.983 7.792 233.937 8.20267 234.727 9.024C235.516 9.84533 235.911 10.8373 235.911 12C235.911 13.1733 235.516 14.1707 234.727 14.992C233.948 15.8027 232.993 16.208 231.863 16.208C230.54 16.208 229.532 15.68 228.839 14.624V19.2H227.447V8H228.839V9.376C229.532 8.32 230.54 7.792 231.863 7.792ZM231.687 14.864C232.487 14.864 233.159 14.592 233.703 14.048C234.247 13.4827 234.519 12.8 234.519 12C234.519 11.1893 234.247 10.512 233.703 9.968C233.159 9.41333 232.487 9.136 231.687 9.136C230.876 9.136 230.199 9.41333 229.655 9.968C229.111 10.512 228.839 11.1893 228.839 12C228.839 12.8 229.111 13.4827 229.655 14.048C230.199 14.592 230.876 14.864 231.687 14.864Z" fill="#242424"/>
<path d="M148.604 4.8H153.004C154.54 4.8 155.815 5.33867 156.828 6.416C157.852 7.49333 158.364 8.82133 158.364 10.4C158.364 11.968 157.852 13.296 156.828 14.384C155.815 15.4613 154.54 16 153.004 16H148.604V4.8ZM150.444 14.24H153.004C154.06 14.24 154.919 13.8773 155.58 13.152C156.252 12.4267 156.588 11.5093 156.588 10.4C156.588 9.29067 156.252 8.37333 155.58 7.648C154.919 6.92267 154.06 6.56 153.004 6.56H150.444V14.24ZM161.658 8V9.344C162.095 8.352 162.917 7.856 164.122 7.856V9.728C163.471 9.68533 162.895 9.84533 162.394 10.208C161.903 10.56 161.658 11.1467 161.658 11.968V16H159.93V8H161.658ZM167.031 6.48C166.817 6.69333 166.561 6.8 166.263 6.8C165.964 6.8 165.703 6.69333 165.479 6.48C165.265 6.256 165.159 5.99467 165.159 5.696C165.159 5.39733 165.265 5.14133 165.479 4.928C165.692 4.704 165.953 4.592 166.263 4.592C166.572 4.592 166.833 4.704 167.047 4.928C167.26 5.14133 167.367 5.39733 167.367 5.696C167.367 5.99467 167.255 6.256 167.031 6.48ZM167.127 16H165.399V8H167.127V16ZM172.333 14.08L174.557 8H176.445L173.325 16H171.325L168.205 8H170.093L172.333 14.08ZM184.955 12.736H178.587C178.715 13.3333 179.003 13.7973 179.451 14.128C179.909 14.4587 180.475 14.624 181.147 14.624C182.053 14.624 182.741 14.2933 183.211 13.632L184.635 14.464C183.856 15.6267 182.688 16.208 181.131 16.208C179.84 16.208 178.789 15.8133 177.979 15.024C177.179 14.224 176.779 13.216 176.779 12C176.779 10.816 177.173 9.81867 177.963 9.008C178.741 8.19733 179.755 7.792 181.003 7.792C182.165 7.792 183.125 8.20267 183.883 9.024C184.64 9.84533 185.019 10.8427 185.019 12.016C185.019 12.2293 184.997 12.4693 184.955 12.736ZM178.571 11.328H183.275C183.157 10.6987 182.891 10.2133 182.475 9.872C182.069 9.53067 181.573 9.36 180.987 9.36C180.347 9.36 179.813 9.536 179.387 9.888C178.96 10.24 178.688 10.72 178.571 11.328ZM188.267 8V9.344C188.705 8.352 189.526 7.856 190.731 7.856V9.728C190.081 9.68533 189.505 9.84533 189.003 10.208C188.513 10.56 188.267 11.1467 188.267 11.968V16H186.539V8H188.267ZM193.279 10.208C193.279 10.4533 193.407 10.656 193.663 10.816C193.919 10.9653 194.292 11.1093 194.783 11.248C195.156 11.3333 195.481 11.424 195.759 11.52C196.036 11.616 196.329 11.76 196.639 11.952C196.948 12.1333 197.183 12.3787 197.343 12.688C197.513 12.9867 197.593 13.3387 197.583 13.744C197.583 14.512 197.284 15.1147 196.687 15.552C196.089 15.9893 195.348 16.208 194.463 16.208C193.673 16.208 192.996 16.0427 192.431 15.712C191.865 15.3813 191.455 14.9227 191.199 14.336L192.687 13.472C192.953 14.24 193.545 14.624 194.463 14.624C195.369 14.624 195.823 14.3253 195.823 13.728C195.823 13.2907 195.316 12.9493 194.303 12.704C193.919 12.608 193.593 12.512 193.327 12.416C193.071 12.32 192.783 12.1813 192.463 12C192.153 11.8187 191.913 11.5787 191.743 11.28C191.583 10.9813 191.508 10.6347 191.519 10.24C191.519 9.504 191.796 8.912 192.351 8.464C192.916 8.016 193.615 7.792 194.447 7.792C195.108 7.792 195.695 7.94133 196.207 8.24C196.729 8.528 197.129 8.93333 197.407 9.456L195.951 10.272C195.684 9.664 195.183 9.36 194.447 9.36C194.105 9.36 193.823 9.43467 193.599 9.584C193.385 9.73333 193.279 9.94133 193.279 10.208Z" fill="#FE4E26"/>
<circle cx="10" cy="10" r="10" fill="#FE4E26"/>
<path d="M7.182 6.11L9.758 5.2H11.158V15H9.548V6.922L7.574 7.482L7.182 6.11Z" fill="#FFF8F6"/>
<path d="M45.488 78H43.84L41.328 73.712H38.688V78H37.2V66.8H41.68C42.64 66.8 43.4613 67.1413 44.144 67.824C44.8267 68.496 45.168 69.312 45.168 70.272C45.168 70.9973 44.9493 71.6587 44.512 72.256C44.064 72.864 43.5093 73.2853 42.848 73.52L45.488 78ZM41.68 68.192H38.688V72.368H41.68C42.2347 72.368 42.704 72.1653 43.088 71.76C43.4827 71.3547 43.68 70.8587 43.68 70.272C43.68 69.6853 43.4827 69.1947 43.088 68.8C42.704 68.3947 42.2347 68.192 41.68 68.192ZM54.111 74.64H47.407C47.5457 75.344 47.871 75.8987 48.383 76.304C48.895 76.6987 49.535 76.896 50.303 76.896C51.359 76.896 52.127 76.5067 52.607 75.728L53.791 76.4C53.0017 77.6053 51.8283 78.208 50.271 78.208C49.0123 78.208 47.9777 77.8133 47.167 77.024C46.3777 76.2133 45.983 75.2053 45.983 74C45.983 72.784 46.3723 71.7813 47.151 70.992C47.9297 70.192 48.9377 69.792 50.175 69.792C51.3483 69.792 52.303 70.208 53.039 71.04C53.7857 71.8507 54.159 72.8427 54.159 74.016C54.159 74.2187 54.143 74.4267 54.111 74.64ZM50.175 71.104C49.439 71.104 48.8203 71.312 48.319 71.728C47.8283 72.144 47.5243 72.7093 47.407 73.424H52.751C52.6337 72.688 52.3403 72.1173 51.871 71.712C51.4017 71.3067 50.8363 71.104 50.175 71.104ZM62.3835 71.376V70H63.7595V77.664C63.7595 78.848 63.3595 79.7653 62.5595 80.416C61.7488 81.0773 60.7888 81.408 59.6795 81.408C58.7835 81.408 58.0102 81.2373 57.3595 80.896C56.7088 80.5653 56.2182 80.0853 55.8875 79.456L57.1035 78.768C57.5408 79.664 58.4102 80.112 59.7115 80.112C60.5435 80.112 61.1942 79.8933 61.6635 79.456C62.1435 79.0187 62.3835 78.4213 62.3835 77.664V76.528C61.6795 77.5947 60.6768 78.128 59.3755 78.128C58.2235 78.128 57.2582 77.7227 56.4795 76.912C55.6902 76.0907 55.2955 75.104 55.2955 73.952C55.2955 72.8 55.6902 71.8187 56.4795 71.008C57.2582 70.1973 58.2235 69.792 59.3755 69.792C60.6875 69.792 61.6902 70.32 62.3835 71.376ZM62.3835 73.952C62.3835 73.152 62.1115 72.48 61.5675 71.936C61.0235 71.392 60.3462 71.12 59.5355 71.12C58.7248 71.12 58.0475 71.392 57.5035 71.936C56.9595 72.48 56.6875 73.152 56.6875 73.952C56.6875 74.7627 56.9595 75.44 57.5035 75.984C58.0475 76.528 58.7248 76.8 59.5355 76.8C60.3462 76.8 61.0235 76.528 61.5675 75.984C62.1115 75.44 62.3835 74.7627 62.3835 73.952ZM66.5725 68.544C66.3058 68.544 66.0818 68.4533 65.9005 68.272C65.7192 68.0907 65.6285 67.872 65.6285 67.616C65.6285 67.36 65.7192 67.1413 65.9005 66.96C66.0818 66.768 66.3058 66.672 66.5725 66.672C66.8285 66.672 67.0472 66.768 67.2285 66.96C67.4098 67.1413 67.5005 67.36 67.5005 67.616C67.5005 67.872 67.4098 68.0907 67.2285 68.272C67.0472 68.4533 66.8285 68.544 66.5725 68.544ZM67.2605 78H65.8685V70H67.2605V78ZM70.5685 72.16C70.5685 72.672 71.0965 73.072 72.1525 73.36C72.5472 73.4453 72.8778 73.536 73.1445 73.632C73.4218 73.7173 73.7205 73.8507 74.0405 74.032C74.3712 74.2133 74.6218 74.4533 74.7925 74.752C74.9632 75.0507 75.0485 75.4027 75.0485 75.808C75.0485 76.5333 74.7658 77.1147 74.2005 77.552C73.6352 77.9893 72.9205 78.208 72.0565 78.208C71.2885 78.208 70.6218 78.0427 70.0565 77.712C69.5018 77.3707 69.1072 76.912 68.8725 76.336L70.0725 75.648C70.2005 76.032 70.4405 76.336 70.7925 76.56C71.1445 76.784 71.5658 76.896 72.0565 76.896C72.5365 76.896 72.9205 76.8053 73.2085 76.624C73.4965 76.4427 73.6405 76.1707 73.6405 75.808C73.6405 75.264 73.1125 74.8693 72.0565 74.624C71.7045 74.528 71.4378 74.4533 71.2565 74.4C71.0752 74.3467 70.8245 74.2507 70.5045 74.112C70.1952 73.9733 69.9605 73.8293 69.8005 73.68C69.6405 73.52 69.4912 73.312 69.3525 73.056C69.2245 72.7893 69.1605 72.496 69.1605 72.176C69.1605 71.4827 69.4272 70.912 69.9605 70.464C70.5045 70.016 71.1818 69.792 71.9925 69.792C72.6432 69.792 73.2192 69.9413 73.7205 70.24C74.2325 70.528 74.6165 70.9333 74.8725 71.456L73.7045 72.112C73.4165 71.4293 72.8458 71.088 71.9925 71.088C71.5872 71.088 71.2458 71.184 70.9685 71.376C70.7018 71.568 70.5685 71.8293 70.5685 72.16ZM80.7361 70V71.344H78.6081V75.68C78.6081 76.0747 78.6828 76.3573 78.8321 76.528C78.9921 76.688 79.2321 76.7733 79.5521 76.784C79.8721 76.784 80.2668 76.7733 80.7361 76.752V78C79.5095 78.16 78.6135 78.0587 78.0481 77.696C77.4935 77.3333 77.2161 76.6613 77.2161 75.68V71.344H75.6321V70H77.2161V68.176L78.6081 67.76V70H80.7361ZM89.6579 74.64H82.9539C83.0925 75.344 83.4179 75.8987 83.9299 76.304C84.4419 76.6987 85.0819 76.896 85.8499 76.896C86.9059 76.896 87.6739 76.5067 88.1539 75.728L89.3379 76.4C88.5485 77.6053 87.3752 78.208 85.8179 78.208C84.5592 78.208 83.5245 77.8133 82.7139 77.024C81.9245 76.2133 81.5299 75.2053 81.5299 74C81.5299 72.784 81.9192 71.7813 82.6979 70.992C83.4765 70.192 84.4845 69.792 85.7219 69.792C86.8952 69.792 87.8499 70.208 88.5859 71.04C89.3325 71.8507 89.7059 72.8427 89.7059 74.016C89.7059 74.2187 89.6899 74.4267 89.6579 74.64ZM85.7219 71.104C84.9859 71.104 84.3672 71.312 83.8659 71.728C83.3752 72.144 83.0712 72.7093 82.9539 73.424H88.2979C88.1805 72.688 87.8872 72.1173 87.4179 71.712C86.9485 71.3067 86.3832 71.104 85.7219 71.104ZM92.698 70V71.344C93.1567 70.352 93.9887 69.856 95.194 69.856V71.312C94.5113 71.28 93.9247 71.4613 93.434 71.856C92.9433 72.2507 92.698 72.8853 92.698 73.76V78H91.306V70H92.698Z" fill="#242424"/>
<circle cx="10" cy="72" r="10" fill="#FE4E26"/>
<path d="M12.888 77H6.434V75.74L9.85 72.254C10.6807 71.4233 11.096 70.7047 11.096 70.098C11.096 69.6313 10.956 69.2627 10.676 68.992C10.396 68.7213 10.032 68.586 9.584 68.586C8.76267 68.586 8.156 68.992 7.764 69.804L6.406 69.006C6.70467 68.362 7.134 67.872 7.694 67.536C8.254 67.1907 8.87933 67.018 9.57 67.018C10.438 67.018 11.1753 67.2887 11.782 67.83C12.398 68.3807 12.706 69.118 12.706 70.042C12.706 71.0313 12.1507 72.0953 11.04 73.234L8.828 75.446H12.888V77Z" fill="#FFF8F6"/>
<path d="M40.816 140.208C39.7707 140.208 38.8747 139.968 38.128 139.488C37.392 138.997 36.8747 138.32 36.576 137.456L37.856 136.72C38.2827 138.075 39.28 138.752 40.848 138.752C41.6053 138.752 42.1867 138.597 42.592 138.288C43.008 137.979 43.216 137.557 43.216 137.024C43.216 136.501 43.0133 136.101 42.608 135.824C42.2453 135.579 41.568 135.296 40.576 134.976L39.504 134.624C39.2693 134.528 38.96 134.389 38.576 134.208C38.2027 134.016 37.9307 133.824 37.76 133.632C37.2907 133.12 37.056 132.496 37.056 131.76C37.056 130.779 37.3973 130.011 38.08 129.456C38.7627 128.88 39.5947 128.592 40.576 128.592C41.4507 128.592 42.2187 128.811 42.88 129.248C43.5413 129.685 44.0373 130.283 44.368 131.04L43.12 131.76C42.64 130.608 41.792 130.032 40.576 130.032C39.968 130.032 39.4773 130.181 39.104 130.48C38.7307 130.779 38.544 131.184 38.544 131.696C38.544 132.187 38.72 132.56 39.072 132.816C39.4347 133.083 40.0427 133.349 40.896 133.616L41.552 133.824C41.9147 133.963 42.112 134.037 42.144 134.048C42.4853 134.176 42.8587 134.352 43.264 134.576C43.552 134.736 43.84 134.981 44.128 135.312C44.5013 135.685 44.688 136.245 44.688 136.992C44.688 137.973 44.3307 138.757 43.616 139.344C42.8907 139.92 41.9573 140.208 40.816 140.208ZM50.4236 132V133.344H48.2956V137.68C48.2956 138.075 48.3703 138.357 48.5196 138.528C48.6796 138.688 48.9196 138.773 49.2396 138.784C49.5596 138.784 49.9543 138.773 50.4236 138.752V140C49.197 140.16 48.301 140.059 47.7356 139.696C47.181 139.333 46.9036 138.661 46.9036 137.68V133.344H45.3196V132H46.9036V130.176L48.2956 129.76V132H50.4236ZM58.2894 133.376V132H59.6814V140H58.2894V138.624C57.6067 139.68 56.5987 140.208 55.2654 140.208C54.1347 140.208 53.18 139.803 52.4014 138.992C51.612 138.171 51.2174 137.173 51.2174 136C51.2174 134.837 51.612 133.845 52.4014 133.024C53.1907 132.203 54.1454 131.792 55.2654 131.792C56.5987 131.792 57.6067 132.32 58.2894 133.376ZM55.4414 138.864C56.252 138.864 56.9294 138.592 57.4734 138.048C58.0174 137.483 58.2894 136.8 58.2894 136C58.2894 135.189 58.0174 134.512 57.4734 133.968C56.9294 133.413 56.252 133.136 55.4414 133.136C54.6414 133.136 53.9694 133.413 53.4254 133.968C52.8814 134.512 52.6094 135.189 52.6094 136C52.6094 136.8 52.8814 137.483 53.4254 138.048C53.9694 138.592 54.6414 138.864 55.4414 138.864ZM63.1824 132V133.344C63.641 132.352 64.473 131.856 65.6784 131.856V133.312C64.9957 133.28 64.409 133.461 63.9184 133.856C63.4277 134.251 63.1824 134.885 63.1824 135.76V140H61.7904V132H63.1824ZM71.5799 132V133.344H69.4519V137.68C69.4519 138.075 69.5265 138.357 69.6759 138.528C69.8359 138.688 70.0759 138.773 70.3959 138.784C70.7159 138.784 71.1105 138.773 71.5799 138.752V140C70.3532 140.16 69.4572 140.059 68.8919 139.696C68.3372 139.333 68.0599 138.661 68.0599 137.68V133.344H66.4759V132H68.0599V130.176L69.4519 129.76V132H71.5799ZM84.9548 136.64H78.2508C78.3894 137.344 78.7148 137.899 79.2268 138.304C79.7388 138.699 80.3788 138.896 81.1468 138.896C82.2028 138.896 82.9708 138.507 83.4508 137.728L84.6348 138.4C83.8454 139.605 82.6721 140.208 81.1148 140.208C79.8561 140.208 78.8214 139.813 78.0108 139.024C77.2214 138.213 76.8268 137.205 76.8268 136C76.8268 134.784 77.2161 133.781 77.9948 132.992C78.7734 132.192 79.7814 131.792 81.0188 131.792C82.1921 131.792 83.1468 132.208 83.8828 133.04C84.6294 133.851 85.0028 134.843 85.0028 136.016C85.0028 136.219 84.9868 136.427 84.9548 136.64ZM81.0188 133.104C80.2828 133.104 79.6641 133.312 79.1628 133.728C78.6721 134.144 78.3681 134.709 78.2508 135.424H83.5948C83.4774 134.688 83.1841 134.117 82.7148 133.712C82.2454 133.307 81.6801 133.104 81.0188 133.104ZM93.2113 133.376V132H94.6033V140H93.2113V138.624C92.5286 139.68 91.5206 140.208 90.1873 140.208C89.0566 140.208 88.1019 139.803 87.3233 138.992C86.5339 138.171 86.1393 137.173 86.1393 136C86.1393 134.837 86.5339 133.845 87.3233 133.024C88.1126 132.203 89.0673 131.792 90.1873 131.792C91.5206 131.792 92.5286 132.32 93.2113 133.376ZM90.3633 138.864C91.1739 138.864 91.8513 138.592 92.3953 138.048C92.9393 137.483 93.2113 136.8 93.2113 136C93.2113 135.189 92.9393 134.512 92.3953 133.968C91.8513 133.413 91.1739 133.136 90.3633 133.136C89.5633 133.136 88.8913 133.413 88.3473 133.968C87.8033 134.512 87.5312 135.189 87.5312 136C87.5312 136.8 87.8033 137.483 88.3473 138.048C88.8913 138.592 89.5633 138.864 90.3633 138.864ZM98.1043 132V133.344C98.5629 132.352 99.3949 131.856 100.6 131.856V133.312C99.9176 133.28 99.3309 133.461 98.8403 133.856C98.3496 134.251 98.1043 134.885 98.1043 135.76V140H96.7122V132H98.1043ZM105.946 131.792C106.885 131.792 107.637 132.091 108.202 132.688C108.768 133.275 109.05 134.075 109.05 135.088V140H107.658V135.168C107.658 134.528 107.482 134.027 107.13 133.664C106.778 133.301 106.293 133.12 105.674 133.12C104.96 133.12 104.394 133.344 103.978 133.792C103.562 134.229 103.354 134.885 103.354 135.76V140H101.962V132H103.354V133.152C103.909 132.245 104.773 131.792 105.946 131.792ZM111.698 130.544C111.431 130.544 111.207 130.453 111.026 130.272C110.844 130.091 110.754 129.872 110.754 129.616C110.754 129.36 110.844 129.141 111.026 128.96C111.207 128.768 111.431 128.672 111.698 128.672C111.954 128.672 112.172 128.768 112.354 128.96C112.535 129.141 112.626 129.36 112.626 129.616C112.626 129.872 112.535 130.091 112.354 130.272C112.172 130.453 111.954 130.544 111.698 130.544ZM112.386 140H110.993V132H112.386V140ZM118.493 131.792C119.432 131.792 120.184 132.091 120.749 132.688C121.314 133.275 121.597 134.075 121.597 135.088V140H120.205V135.168C120.205 134.528 120.029 134.027 119.677 133.664C119.325 133.301 118.84 133.12 118.221 133.12C117.506 133.12 116.941 133.344 116.525 133.792C116.109 134.229 115.901 134.885 115.901 135.76V140H114.509V132H115.901V133.152C116.456 132.245 117.32 131.792 118.493 131.792ZM130.18 133.376V132H131.556V139.664C131.556 140.848 131.156 141.765 130.356 142.416C129.546 143.077 128.586 143.408 127.476 143.408C126.58 143.408 125.807 143.237 125.156 142.896C124.506 142.565 124.015 142.085 123.684 141.456L124.9 140.768C125.338 141.664 126.207 142.112 127.508 142.112C128.34 142.112 128.991 141.893 129.46 141.456C129.94 141.019 130.18 140.421 130.18 139.664V138.528C129.476 139.595 128.474 140.128 127.172 140.128C126.02 140.128 125.055 139.723 124.276 138.912C123.487 138.091 123.092 137.104 123.092 135.952C123.092 134.8 123.487 133.819 124.276 133.008C125.055 132.197 126.02 131.792 127.172 131.792C128.484 131.792 129.487 132.32 130.18 133.376ZM130.18 135.952C130.18 135.152 129.908 134.48 129.364 133.936C128.82 133.392 128.143 133.12 127.332 133.12C126.522 133.12 125.844 133.392 125.3 133.936C124.756 134.48 124.484 135.152 124.484 135.952C124.484 136.763 124.756 137.44 125.3 137.984C125.844 138.528 126.522 138.8 127.332 138.8C128.143 138.8 128.82 138.528 129.364 137.984C129.908 137.44 130.18 136.763 130.18 135.952Z" fill="#242424"/>
<path d="M135.089 136.72H134.017L133.713 132V128.8H135.393V132L135.089 136.72ZM134.545 140.176C134.257 140.176 134.012 140.075 133.809 139.872C133.607 139.669 133.505 139.424 133.505 139.136C133.505 138.848 133.607 138.603 133.809 138.4C134.012 138.197 134.257 138.096 134.545 138.096C134.844 138.096 135.089 138.197 135.281 138.4C135.484 138.603 135.585 138.848 135.585 139.136C135.585 139.424 135.484 139.669 135.281 139.872C135.089 140.075 134.844 140.176 134.545 140.176Z" fill="#FE4E26"/>
<circle cx="10" cy="134" r="10" fill="#FE4E26"/>
<path d="M12.664 130.572L10.676 133.204C11.404 133.372 11.9827 133.708 12.412 134.212C12.8507 134.707 13.07 135.313 13.07 136.032C13.07 137.012 12.7387 137.782 12.076 138.342C11.4227 138.902 10.6107 139.182 9.64 139.182C8.87467 139.182 8.198 139.009 7.61 138.664C7.022 138.309 6.602 137.805 6.35 137.152L7.722 136.354C8.01133 137.194 8.65067 137.614 9.64 137.614C10.2 137.614 10.6433 137.474 10.97 137.194C11.2967 136.905 11.46 136.517 11.46 136.032C11.46 135.547 11.2967 135.164 10.97 134.884C10.6433 134.604 10.2 134.464 9.64 134.464H9.276L8.632 133.498L10.746 130.712H6.644V129.2H12.664V130.572Z" fill="#FFF8F6"/>
</svg>
