<svg width="370" height="360" viewBox="0 0 370 360" fill="none" xmlns="http://www.w3.org/2000/svg">
<path d="M70.1438 24.2H76.6958C78.9678 24.2 80.8638 25.016 82.3838 26.648C83.9038 28.264 84.6638 30.248 84.6638 32.6C84.6638 34.936 83.9038 36.928 82.3838 38.576C80.8638 40.192 78.9678 41 76.6958 41H70.1438V24.2ZM72.3758 38.888H76.6958C78.4078 38.888 79.8078 38.288 80.8958 37.088C81.9838 35.872 82.5278 34.376 82.5278 32.6C82.5278 30.824 81.9838 29.328 80.8958 28.112C79.8078 26.912 78.4078 26.312 76.6958 26.312H72.3758V38.888ZM97.2823 39.488C96.0663 40.704 94.5703 41.312 92.7943 41.312C91.0183 41.312 89.5223 40.704 88.3063 39.488C87.0903 38.272 86.4823 36.776 86.4823 35C86.4823 33.224 87.0903 31.728 88.3063 30.512C89.5223 29.296 91.0183 28.688 92.7943 28.688C94.5703 28.688 96.0663 29.296 97.2823 30.512C98.5143 31.744 99.1303 33.24 99.1303 35C99.1303 36.76 98.5143 38.256 97.2823 39.488ZM92.7943 39.272C93.9943 39.272 95.0023 38.864 95.8183 38.048C96.6343 37.232 97.0423 36.216 97.0423 35C97.0423 33.784 96.6343 32.768 95.8183 31.952C95.0023 31.136 93.9943 30.728 92.7943 30.728C91.6103 30.728 90.6103 31.136 89.7943 31.952C88.9783 32.768 88.5703 33.784 88.5703 35C88.5703 36.216 88.9783 37.232 89.7943 38.048C90.6103 38.864 91.6103 39.272 92.7943 39.272ZM112.619 38.144L115.259 29H117.443L113.723 41H111.587L108.779 32.12L105.971 41H103.835L100.115 29H102.299L104.939 38.12L107.771 29H109.787L112.619 38.144ZM125.568 28.688C126.976 28.688 128.104 29.136 128.952 30.032C129.8 30.912 130.224 32.112 130.224 33.632V41H128.136V33.752C128.136 32.792 127.872 32.04 127.344 31.496C126.816 30.952 126.088 30.68 125.16 30.68C124.088 30.68 123.24 31.016 122.616 31.688C121.992 32.344 121.68 33.328 121.68 34.64V41H119.592V29H121.68V30.728C122.512 29.368 123.808 28.688 125.568 28.688ZM135.227 41H133.139V23.48H135.227V41ZM148.54 39.488C147.324 40.704 145.828 41.312 144.052 41.312C142.276 41.312 140.78 40.704 139.564 39.488C138.348 38.272 137.74 36.776 137.74 35C137.74 33.224 138.348 31.728 139.564 30.512C140.78 29.296 142.276 28.688 144.052 28.688C145.828 28.688 147.324 29.296 148.54 30.512C149.772 31.744 150.388 33.24 150.388 35C150.388 36.76 149.772 38.256 148.54 39.488ZM144.052 39.272C145.252 39.272 146.26 38.864 147.076 38.048C147.892 37.232 148.3 36.216 148.3 35C148.3 33.784 147.892 32.768 147.076 31.952C146.26 31.136 145.252 30.728 144.052 30.728C142.868 30.728 141.868 31.136 141.052 31.952C140.236 32.768 139.828 33.784 139.828 35C139.828 36.216 140.236 37.232 141.052 38.048C141.868 38.864 142.868 39.272 144.052 39.272ZM162.786 31.064V29H164.874V41H162.786V38.936C161.762 40.52 160.25 41.312 158.25 41.312C156.554 41.312 155.122 40.704 153.954 39.488C152.77 38.256 152.178 36.76 152.178 35C152.178 33.256 152.77 31.768 153.954 30.536C155.138 29.304 156.57 28.688 158.25 28.688C160.25 28.688 161.762 29.48 162.786 31.064ZM158.514 39.296C159.73 39.296 160.746 38.888 161.562 38.072C162.378 37.224 162.786 36.2 162.786 35C162.786 33.784 162.378 32.768 161.562 31.952C160.746 31.12 159.73 30.704 158.514 30.704C157.314 30.704 156.306 31.12 155.49 31.952C154.674 32.768 154.266 33.784 154.266 35C154.266 36.2 154.674 37.224 155.49 38.072C156.306 38.888 157.314 39.296 158.514 39.296ZM177.973 31.064V24.2H180.061V41H177.973V38.936C176.949 40.52 175.437 41.312 173.437 41.312C171.741 41.312 170.309 40.704 169.141 39.488C167.957 38.256 167.365 36.76 167.365 35C167.365 33.256 167.957 31.768 169.141 30.536C170.325 29.304 171.757 28.688 173.437 28.688C175.437 28.688 176.949 29.48 177.973 31.064ZM173.701 39.296C174.917 39.296 175.933 38.888 176.749 38.072C177.565 37.224 177.973 36.2 177.973 35C177.973 33.784 177.565 32.768 176.749 31.952C175.933 31.12 174.917 30.704 173.701 30.704C172.501 30.704 171.493 31.12 170.677 31.952C169.861 32.768 169.453 33.784 169.453 35C169.453 36.2 169.861 37.224 170.677 38.072C171.493 38.888 172.501 39.296 173.701 39.296ZM199.353 39.488C198.137 40.704 196.641 41.312 194.865 41.312C193.089 41.312 191.593 40.704 190.377 39.488C189.161 38.272 188.553 36.776 188.553 35C188.553 33.224 189.161 31.728 190.377 30.512C191.593 29.296 193.089 28.688 194.865 28.688C196.641 28.688 198.137 29.296 199.353 30.512C200.585 31.744 201.201 33.24 201.201 35C201.201 36.76 200.585 38.256 199.353 39.488ZM194.865 39.272C196.065 39.272 197.073 38.864 197.889 38.048C198.705 37.232 199.113 36.216 199.113 35C199.113 33.784 198.705 32.768 197.889 31.952C197.073 31.136 196.065 30.728 194.865 30.728C193.681 30.728 192.681 31.136 191.865 31.952C191.049 32.768 190.641 33.784 190.641 35C190.641 36.216 191.049 37.232 191.865 38.048C192.681 38.864 193.681 39.272 194.865 39.272ZM211.942 35.36V29H214.03V41H211.942V39.272C211.11 40.632 209.814 41.312 208.054 41.312C206.646 41.312 205.518 40.872 204.67 39.992C203.822 39.096 203.398 37.888 203.398 36.368V29H205.486V36.248C205.486 37.208 205.75 37.96 206.278 38.504C206.806 39.048 207.534 39.32 208.462 39.32C209.534 39.32 210.382 38.992 211.006 38.336C211.63 37.664 211.942 36.672 211.942 35.36ZM219.297 29V31.016C219.985 29.528 221.233 28.784 223.041 28.784V30.968C222.017 30.92 221.137 31.192 220.401 31.784C219.665 32.376 219.297 33.328 219.297 34.64V41H217.209V29H219.297ZM233.268 30.032H230.868L232.428 24.2H234.228L233.268 30.032ZM237.37 24.2H243.922C246.194 24.2 248.09 25.016 249.61 26.648C251.13 28.264 251.89 30.248 251.89 32.6C251.89 34.936 251.13 36.928 249.61 38.576C248.09 40.192 246.194 41 243.922 41H237.37V24.2ZM239.602 38.888H243.922C245.634 38.888 247.034 38.288 248.122 37.088C249.21 35.872 249.754 34.376 249.754 32.6C249.754 30.824 249.21 29.328 248.122 28.112C247.034 26.912 245.634 26.312 243.922 26.312H239.602V38.888ZM256.469 29V31.016C257.157 29.528 258.405 28.784 260.213 28.784V30.968C259.189 30.92 258.309 31.192 257.573 31.784C256.837 32.376 256.469 33.328 256.469 34.64V41H254.381V29H256.469ZM263.312 26.816C262.912 26.816 262.576 26.68 262.304 26.408C262.032 26.136 261.896 25.808 261.896 25.424C261.896 25.04 262.032 24.712 262.304 24.44C262.576 24.152 262.912 24.008 263.312 24.008C263.696 24.008 264.024 24.152 264.296 24.44C264.568 24.712 264.704 25.04 264.704 25.424C264.704 25.808 264.568 26.136 264.296 26.408C264.024 26.68 263.696 26.816 263.312 26.816ZM264.344 41H262.256V29H264.344V41ZM272.161 38.768L275.929 29H278.185L273.385 41H270.937L266.137 29H268.393L272.161 38.768ZM291.002 35.96H280.946C281.154 37.016 281.642 37.848 282.41 38.456C283.178 39.048 284.138 39.344 285.29 39.344C286.874 39.344 288.026 38.76 288.746 37.592L290.522 38.6C289.338 40.408 287.578 41.312 285.242 41.312C283.354 41.312 281.802 40.72 280.586 39.536C279.402 38.32 278.81 36.808 278.81 35C278.81 33.176 279.394 31.672 280.562 30.488C281.73 29.288 283.242 28.688 285.098 28.688C286.858 28.688 288.29 29.312 289.394 30.56C290.514 31.776 291.074 33.264 291.074 35.024C291.074 35.328 291.05 35.64 291.002 35.96ZM285.098 30.656C283.994 30.656 283.066 30.968 282.314 31.592C281.578 32.216 281.122 33.064 280.946 34.136H288.962C288.786 33.032 288.346 32.176 287.642 31.568C286.938 30.96 286.09 30.656 285.098 30.656ZM295.563 29V31.016C296.251 29.528 297.499 28.784 299.307 28.784V30.968C298.283 30.92 297.403 31.192 296.667 31.784C295.931 32.376 295.563 33.328 295.563 34.64V41H293.475V29H295.563ZM302.704 32.24C302.704 33.008 303.496 33.608 305.08 34.04C305.672 34.168 306.168 34.304 306.568 34.448C306.984 34.576 307.432 34.776 307.912 35.048C308.408 35.32 308.784 35.68 309.04 36.128C309.296 36.576 309.424 37.104 309.424 37.712C309.424 38.8 309 39.672 308.152 40.328C307.304 40.984 306.232 41.312 304.936 41.312C303.784 41.312 302.784 41.064 301.936 40.568C301.104 40.056 300.512 39.368 300.16 38.504L301.96 37.472C302.152 38.048 302.512 38.504 303.04 38.84C303.568 39.176 304.2 39.344 304.936 39.344C305.656 39.344 306.232 39.208 306.664 38.936C307.096 38.664 307.312 38.256 307.312 37.712C307.312 36.896 306.52 36.304 304.936 35.936C304.408 35.792 304.008 35.68 303.736 35.6C303.464 35.52 303.088 35.376 302.608 35.168C302.144 34.96 301.792 34.744 301.552 34.52C301.312 34.28 301.088 33.968 300.88 33.584C300.688 33.184 300.592 32.744 300.592 32.264C300.592 31.224 300.992 30.368 301.792 29.696C302.608 29.024 303.624 28.688 304.84 28.688C305.816 28.688 306.68 28.912 307.432 29.36C308.2 29.792 308.776 30.4 309.16 31.184L307.408 32.168C306.976 31.144 306.12 30.632 304.84 30.632C304.232 30.632 303.72 30.776 303.304 31.064C302.904 31.352 302.704 31.744 302.704 32.24ZM311.867 24.176H314.267L312.707 30.008H310.907L311.867 24.176ZM333.153 31.064V29H335.241V41H333.153V38.936C332.129 40.52 330.617 41.312 328.617 41.312C326.921 41.312 325.489 40.704 324.321 39.488C323.137 38.256 322.545 36.76 322.545 35C322.545 33.256 323.137 31.768 324.321 30.536C325.505 29.304 326.937 28.688 328.617 28.688C330.617 28.688 332.129 29.48 333.153 31.064ZM328.881 39.296C330.097 39.296 331.113 38.888 331.929 38.072C332.745 37.224 333.153 36.2 333.153 35C333.153 33.784 332.745 32.768 331.929 31.952C331.113 31.12 330.097 30.704 328.881 30.704C327.681 30.704 326.673 31.12 325.857 31.952C325.041 32.768 324.633 33.784 324.633 35C324.633 36.2 325.041 37.224 325.857 38.072C326.673 38.888 327.681 39.296 328.881 39.296ZM345.028 28.688C346.708 28.688 348.14 29.304 349.324 30.536C350.508 31.768 351.1 33.256 351.1 35C351.1 36.76 350.508 38.256 349.324 39.488C348.156 40.704 346.724 41.312 345.028 41.312C343.044 41.312 341.532 40.52 340.492 38.936V45.8H338.404V29H340.492V31.064C341.532 29.48 343.044 28.688 345.028 28.688ZM344.764 39.296C345.964 39.296 346.972 38.888 347.788 38.072C348.604 37.224 349.012 36.2 349.012 35C349.012 33.784 348.604 32.768 347.788 31.952C346.972 31.12 345.964 30.704 344.764 30.704C343.548 30.704 342.532 31.12 341.716 31.952C340.9 32.768 340.492 33.784 340.492 35C340.492 36.2 340.9 37.224 341.716 38.072C342.532 38.888 343.548 39.296 344.764 39.296ZM360.216 28.688C361.896 28.688 363.328 29.304 364.512 30.536C365.696 31.768 366.288 33.256 366.288 35C366.288 36.76 365.696 38.256 364.512 39.488C363.344 40.704 361.912 41.312 360.216 41.312C358.232 41.312 356.72 40.52 355.68 38.936V45.8H353.592V29H355.68V31.064C356.72 29.48 358.232 28.688 360.216 28.688ZM359.952 39.296C361.152 39.296 362.16 38.888 362.976 38.072C363.792 37.224 364.2 36.2 364.2 35C364.2 33.784 363.792 32.768 362.976 31.952C362.16 31.12 361.152 30.704 359.952 30.704C358.736 30.704 357.72 31.12 356.904 31.952C356.088 32.768 355.68 33.784 355.68 35C355.68 36.2 356.088 37.224 356.904 38.072C357.72 38.888 358.736 39.296 359.952 39.296Z" fill="#242424"/>
<path d="M82.5759 184.863H80.1039L76.3359 178.431H72.3759V184.863H70.1439V168.063H76.8639C78.3039 168.063 79.5359 168.575 80.5599 169.599C81.5839 170.607 82.0959 171.831 82.0959 173.271C82.0959 174.359 81.7679 175.351 81.1119 176.247C80.4399 177.159 79.6079 177.791 78.6159 178.143L82.5759 184.863ZM76.8639 170.151H72.3759V176.415H76.8639C77.6959 176.415 78.3999 176.111 78.9759 175.503C79.5679 174.895 79.8639 174.151 79.8639 173.271C79.8639 172.391 79.5679 171.655 78.9759 171.063C78.3999 170.455 77.6959 170.151 76.8639 170.151ZM95.5104 179.823H85.4544C85.6624 180.879 86.1504 181.711 86.9184 182.319C87.6864 182.911 88.6464 183.207 89.7984 183.207C91.3824 183.207 92.5344 182.623 93.2544 181.455L95.0304 182.463C93.8464 184.271 92.0864 185.175 89.7504 185.175C87.8624 185.175 86.3104 184.583 85.0944 183.399C83.9104 182.183 83.3184 180.671 83.3184 178.863C83.3184 177.039 83.9024 175.535 85.0704 174.351C86.2384 173.151 87.7504 172.551 89.6064 172.551C91.3664 172.551 92.7984 173.175 93.9024 174.423C95.0224 175.639 95.5824 177.127 95.5824 178.887C95.5824 179.191 95.5584 179.503 95.5104 179.823ZM89.6064 174.519C88.5024 174.519 87.5744 174.831 86.8224 175.455C86.0864 176.079 85.6304 176.927 85.4544 177.999H93.4704C93.2944 176.895 92.8544 176.039 92.1504 175.431C91.4464 174.823 90.5984 174.519 89.6064 174.519ZM107.919 174.927V172.863H109.983V184.359C109.983 186.135 109.383 187.511 108.183 188.487C106.967 189.479 105.527 189.975 103.863 189.975C102.519 189.975 101.359 189.719 100.383 189.207C99.4071 188.711 98.6711 187.991 98.1751 187.047L99.9991 186.015C100.655 187.359 101.959 188.031 103.911 188.031C105.159 188.031 106.135 187.703 106.839 187.047C107.559 186.391 107.919 185.495 107.919 184.359V182.655C106.863 184.255 105.359 185.055 103.407 185.055C101.679 185.055 100.231 184.447 99.0631 183.231C97.8791 181.999 97.2871 180.519 97.2871 178.791C97.2871 177.063 97.8791 175.591 99.0631 174.375C100.231 173.159 101.679 172.551 103.407 172.551C105.375 172.551 106.879 173.343 107.919 174.927ZM107.919 178.791C107.919 177.591 107.511 176.583 106.695 175.767C105.879 174.951 104.863 174.543 103.647 174.543C102.431 174.543 101.415 174.951 100.599 175.767C99.7831 176.583 99.3751 177.591 99.3751 178.791C99.3751 180.007 99.7831 181.023 100.599 181.839C101.415 182.655 102.431 183.063 103.647 183.063C104.863 183.063 105.879 182.655 106.695 181.839C107.511 181.023 107.919 180.007 107.919 178.791ZM114.203 170.679C113.803 170.679 113.467 170.543 113.195 170.271C112.923 169.999 112.787 169.671 112.787 169.287C112.787 168.903 112.923 168.575 113.195 168.303C113.467 168.015 113.803 167.871 114.203 167.871C114.587 167.871 114.915 168.015 115.187 168.303C115.459 168.575 115.595 168.903 115.595 169.287C115.595 169.671 115.459 169.999 115.187 170.271C114.915 170.543 114.587 170.679 114.203 170.679ZM115.235 184.863H113.147V172.863H115.235V184.863ZM120.197 176.103C120.197 176.871 120.989 177.471 122.573 177.903C123.165 178.031 123.661 178.167 124.061 178.311C124.477 178.439 124.925 178.639 125.405 178.911C125.901 179.183 126.277 179.543 126.533 179.991C126.789 180.439 126.917 180.967 126.917 181.575C126.917 182.663 126.493 183.535 125.645 184.191C124.797 184.847 123.725 185.175 122.429 185.175C121.277 185.175 120.277 184.927 119.429 184.431C118.597 183.919 118.005 183.231 117.653 182.367L119.453 181.335C119.645 181.911 120.005 182.367 120.533 182.703C121.061 183.039 121.693 183.207 122.429 183.207C123.149 183.207 123.725 183.071 124.157 182.799C124.589 182.527 124.805 182.119 124.805 181.575C124.805 180.759 124.013 180.167 122.429 179.799C121.901 179.655 121.501 179.543 121.229 179.463C120.957 179.383 120.581 179.239 120.101 179.031C119.637 178.823 119.285 178.607 119.045 178.383C118.805 178.143 118.581 177.831 118.373 177.447C118.181 177.047 118.085 176.607 118.085 176.127C118.085 175.087 118.485 174.231 119.285 173.559C120.101 172.887 121.117 172.551 122.333 172.551C123.309 172.551 124.173 172.775 124.925 173.223C125.693 173.655 126.269 174.263 126.653 175.047L124.901 176.031C124.469 175.007 123.613 174.495 122.333 174.495C121.725 174.495 121.213 174.639 120.797 174.927C120.397 175.215 120.197 175.607 120.197 176.103ZM135.448 172.863V174.879H132.256V181.383C132.256 181.975 132.368 182.399 132.592 182.655C132.832 182.895 133.192 183.023 133.672 183.039C134.152 183.039 134.744 183.023 135.448 182.991V184.863C133.608 185.103 132.264 184.951 131.416 184.407C130.584 183.863 130.168 182.855 130.168 181.383V174.879H127.792V172.863H130.168V170.127L132.256 169.503V172.863H135.448ZM148.831 179.823H138.775C138.983 180.879 139.471 181.711 140.239 182.319C141.007 182.911 141.967 183.207 143.119 183.207C144.703 183.207 145.855 182.623 146.575 181.455L148.351 182.463C147.167 184.271 145.407 185.175 143.071 185.175C141.183 185.175 139.631 184.583 138.415 183.399C137.231 182.183 136.639 180.671 136.639 178.863C136.639 177.039 137.223 175.535 138.391 174.351C139.559 173.151 141.071 172.551 142.927 172.551C144.687 172.551 146.119 173.175 147.223 174.423C148.343 175.639 148.903 177.127 148.903 178.887C148.903 179.191 148.879 179.503 148.831 179.823ZM142.927 174.519C141.823 174.519 140.895 174.831 140.143 175.455C139.407 176.079 138.951 176.927 138.775 177.999H146.791C146.615 176.895 146.175 176.039 145.471 175.431C144.767 174.823 143.919 174.519 142.927 174.519ZM153.391 172.863V174.879C154.079 173.391 155.327 172.647 157.135 172.647V174.831C156.111 174.783 155.231 175.055 154.495 175.647C153.759 176.239 153.391 177.191 153.391 178.503V184.863H151.303V172.863H153.391Z" fill="#242424"/>
<path d="M75.5678 331.05C73.9998 331.05 72.6558 330.69 71.5358 329.97C70.4318 329.234 69.6558 328.218 69.2078 326.922L71.1278 325.818C71.7678 327.85 73.2638 328.866 75.6158 328.866C76.7518 328.866 77.6238 328.634 78.2318 328.17C78.8558 327.706 79.1678 327.074 79.1678 326.274C79.1678 325.49 78.8638 324.89 78.2558 324.474C77.7118 324.106 76.6958 323.682 75.2078 323.202L73.5998 322.674C73.2478 322.53 72.7838 322.322 72.2078 322.05C71.6478 321.762 71.2398 321.474 70.9838 321.186C70.2798 320.418 69.9277 319.482 69.9277 318.378C69.9277 316.906 70.4398 315.754 71.4638 314.922C72.4878 314.058 73.7358 313.626 75.2078 313.626C76.5198 313.626 77.6718 313.954 78.6638 314.61C79.6558 315.266 80.3998 316.162 80.8958 317.298L79.0238 318.378C78.3038 316.65 77.0318 315.786 75.2078 315.786C74.2958 315.786 73.5598 316.01 72.9998 316.458C72.4398 316.906 72.1598 317.514 72.1598 318.282C72.1598 319.018 72.4238 319.578 72.9518 319.962C73.4958 320.362 74.4078 320.762 75.6878 321.162L76.6718 321.474C77.2158 321.682 77.5118 321.794 77.5598 321.81C78.0718 322.002 78.6318 322.266 79.2398 322.602C79.6718 322.842 80.1038 323.21 80.5358 323.706C81.0958 324.266 81.3758 325.106 81.3758 326.226C81.3758 327.698 80.8398 328.874 79.7678 329.754C78.6798 330.618 77.2798 331.05 75.5678 331.05ZM89.9792 318.738V320.754H86.7872V327.258C86.7872 327.85 86.8992 328.274 87.1232 328.53C87.3632 328.77 87.7232 328.898 88.2032 328.914C88.6832 328.914 89.2752 328.898 89.9792 328.866V330.738C88.1392 330.978 86.7952 330.826 85.9472 330.282C85.1152 329.738 84.6992 328.73 84.6992 327.258V320.754H82.3232V318.738H84.6992V316.002L86.7872 315.378V318.738H89.9792ZM101.778 320.802V318.738H103.866V330.738H101.778V328.674C100.754 330.258 99.2418 331.05 97.2418 331.05C95.5458 331.05 94.1138 330.442 92.9458 329.226C91.7618 327.994 91.1698 326.498 91.1698 324.738C91.1698 322.994 91.7618 321.506 92.9458 320.274C94.1298 319.042 95.5618 318.426 97.2418 318.426C99.2418 318.426 100.754 319.218 101.778 320.802ZM97.5058 329.034C98.7218 329.034 99.7378 328.626 100.554 327.81C101.37 326.962 101.778 325.938 101.778 324.738C101.778 323.522 101.37 322.506 100.554 321.69C99.7378 320.858 98.7218 320.442 97.5058 320.442C96.3058 320.442 95.2978 320.858 94.4818 321.69C93.6658 322.506 93.2578 323.522 93.2578 324.738C93.2578 325.938 93.6658 326.962 94.4818 327.81C95.2978 328.626 96.3058 329.034 97.5058 329.034ZM109.117 318.738V320.754C109.805 319.266 111.053 318.522 112.861 318.522V320.706C111.837 320.658 110.957 320.93 110.221 321.522C109.485 322.114 109.117 323.066 109.117 324.378V330.738H107.029V318.738H109.117ZM121.714 318.738V320.754H118.522V327.258C118.522 327.85 118.634 328.274 118.858 328.53C119.098 328.77 119.458 328.898 119.938 328.914C120.418 328.914 121.01 328.898 121.714 328.866V330.738C119.874 330.978 118.53 330.826 117.682 330.282C116.85 329.738 116.434 328.73 116.434 327.258V320.754H114.058V318.738H116.434V316.002L118.522 315.378V318.738H121.714ZM141.776 325.698H131.72C131.928 326.754 132.416 327.586 133.184 328.194C133.952 328.786 134.912 329.082 136.064 329.082C137.648 329.082 138.8 328.498 139.52 327.33L141.296 328.338C140.112 330.146 138.352 331.05 136.016 331.05C134.128 331.05 132.576 330.458 131.36 329.274C130.176 328.058 129.584 326.546 129.584 324.738C129.584 322.914 130.168 321.41 131.336 320.226C132.504 319.026 134.016 318.426 135.872 318.426C137.632 318.426 139.064 319.05 140.168 320.298C141.288 321.514 141.848 323.002 141.848 324.762C141.848 325.066 141.824 325.378 141.776 325.698ZM135.872 320.394C134.768 320.394 133.84 320.706 133.088 321.33C132.352 321.954 131.896 322.802 131.72 323.874H139.736C139.56 322.77 139.12 321.914 138.416 321.306C137.712 320.698 136.864 320.394 135.872 320.394ZM154.161 320.802V318.738H156.249V330.738H154.161V328.674C153.137 330.258 151.625 331.05 149.625 331.05C147.929 331.05 146.497 330.442 145.329 329.226C144.145 327.994 143.553 326.498 143.553 324.738C143.553 322.994 144.145 321.506 145.329 320.274C146.513 319.042 147.945 318.426 149.625 318.426C151.625 318.426 153.137 319.218 154.161 320.802ZM149.889 329.034C151.105 329.034 152.121 328.626 152.937 327.81C153.753 326.962 154.161 325.938 154.161 324.738C154.161 323.522 153.753 322.506 152.937 321.69C152.121 320.858 151.105 320.442 149.889 320.442C148.689 320.442 147.681 320.858 146.865 321.69C146.049 322.506 145.641 323.522 145.641 324.738C145.641 325.938 146.049 326.962 146.865 327.81C147.681 328.626 148.689 329.034 149.889 329.034ZM161.5 318.738V320.754C162.188 319.266 163.436 318.522 165.244 318.522V320.706C164.22 320.658 163.34 320.93 162.604 321.522C161.868 322.114 161.5 323.066 161.5 324.378V330.738H159.412V318.738H161.5ZM173.263 318.426C174.671 318.426 175.799 318.874 176.647 319.77C177.495 320.65 177.919 321.85 177.919 323.37V330.738H175.831V323.49C175.831 322.53 175.567 321.778 175.039 321.234C174.511 320.69 173.783 320.418 172.855 320.418C171.783 320.418 170.935 320.754 170.311 321.426C169.687 322.082 169.375 323.066 169.375 324.378V330.738H167.287V318.738H169.375V320.466C170.207 319.106 171.503 318.426 173.263 318.426ZM181.89 316.554C181.49 316.554 181.154 316.418 180.882 316.146C180.61 315.874 180.474 315.546 180.474 315.162C180.474 314.778 180.61 314.45 180.882 314.178C181.154 313.89 181.49 313.746 181.89 313.746C182.274 313.746 182.602 313.89 182.874 314.178C183.146 314.45 183.282 314.778 183.282 315.162C183.282 315.546 183.146 315.874 182.874 316.146C182.602 316.418 182.274 316.554 181.89 316.554ZM182.922 330.738H180.834V318.738H182.922V330.738ZM192.083 318.426C193.491 318.426 194.619 318.874 195.467 319.77C196.315 320.65 196.739 321.85 196.739 323.37V330.738H194.651V323.49C194.651 322.53 194.387 321.778 193.859 321.234C193.331 320.69 192.603 320.418 191.675 320.418C190.603 320.418 189.755 320.754 189.131 321.426C188.507 322.082 188.195 323.066 188.195 324.378V330.738H186.107V318.738H188.195V320.466C189.027 319.106 190.323 318.426 192.083 318.426ZM209.614 320.802V318.738H211.678V330.234C211.678 332.01 211.078 333.386 209.878 334.362C208.662 335.354 207.222 335.85 205.558 335.85C204.214 335.85 203.054 335.594 202.078 335.082C201.102 334.586 200.366 333.866 199.87 332.922L201.694 331.89C202.35 333.234 203.654 333.906 205.606 333.906C206.854 333.906 207.83 333.578 208.534 332.922C209.254 332.266 209.614 331.37 209.614 330.234V328.53C208.558 330.13 207.054 330.93 205.102 330.93C203.374 330.93 201.926 330.322 200.758 329.106C199.574 327.874 198.982 326.394 198.982 324.666C198.982 322.938 199.574 321.466 200.758 320.25C201.926 319.034 203.374 318.426 205.102 318.426C207.07 318.426 208.574 319.218 209.614 320.802ZM209.614 324.666C209.614 323.466 209.206 322.458 208.39 321.642C207.574 320.826 206.558 320.418 205.342 320.418C204.126 320.418 203.11 320.826 202.294 321.642C201.478 322.458 201.07 323.466 201.07 324.666C201.07 325.882 201.478 326.898 202.294 327.714C203.11 328.53 204.126 328.938 205.342 328.938C206.558 328.938 207.574 328.53 208.39 327.714C209.206 326.898 209.614 325.882 209.614 324.666Z" fill="#242424"/>
<path d="M216.978 325.818H215.37L214.914 318.738V313.938H217.434V318.738L216.978 325.818ZM216.162 331.002C215.73 331.002 215.362 330.85 215.058 330.546C214.754 330.242 214.602 329.874 214.602 329.442C214.602 329.01 214.754 328.642 215.058 328.338C215.362 328.034 215.73 327.882 216.162 327.882C216.61 327.882 216.978 328.034 217.266 328.338C217.57 328.642 217.722 329.01 217.722 329.442C217.722 329.874 217.57 330.242 217.266 330.546C216.978 330.85 216.61 331.002 216.162 331.002Z" fill="#FE4E26"/>
<path d="M15.5321 40.1128C15.5321 40.3906 15.7574 40.6158 16.0352 40.6158C16.313 40.6158 16.5382 40.3906 16.5382 40.1128L15.5321 40.1128ZM16.5382 49.9047C16.5382 49.6269 16.313 49.4017 16.0352 49.4017C15.7573 49.4017 15.5321 49.6269 15.5321 49.9047L16.5382 49.9047ZM15.5321 59.6967C15.5321 59.9745 15.7573 60.1997 16.0352 60.1997C16.313 60.1997 16.5382 59.9745 16.5382 59.6967L15.5321 59.6967ZM16.5382 69.4887C16.5382 69.2109 16.313 68.9857 16.0352 68.9857C15.7573 68.9857 15.5321 69.2109 15.5321 69.4887L16.5382 69.4887ZM15.5321 79.2807C15.5321 79.5585 15.7573 79.7837 16.0352 79.7837C16.313 79.7837 16.5382 79.5585 16.5382 79.2807L15.5321 79.2807ZM16.5382 89.0726C16.5382 88.7948 16.313 88.5696 16.0352 88.5696C15.7573 88.5696 15.5321 88.7948 15.5321 89.0726L16.5382 89.0726ZM15.5321 98.8646C15.5321 99.1424 15.7573 99.3676 16.0352 99.3676C16.313 99.3676 16.5382 99.1424 16.5382 98.8646L15.5321 98.8646ZM16.5382 108.657C16.5382 108.379 16.313 108.154 16.0352 108.154C15.7573 108.154 15.5321 108.379 15.5321 108.657L16.5382 108.657ZM15.5321 118.449C15.5321 118.726 15.7573 118.952 16.0352 118.952C16.313 118.952 16.5382 118.726 16.5382 118.449L15.5321 118.449ZM16.5382 128.241C16.5382 127.963 16.313 127.737 16.0352 127.737C15.7573 127.737 15.5321 127.963 15.5321 128.241L16.5382 128.241ZM15.5321 138.032C15.5321 138.31 15.7573 138.535 16.0352 138.535C16.313 138.535 16.5382 138.31 16.5382 138.032L15.5321 138.032ZM16.5382 147.824C16.5382 147.547 16.313 147.321 16.0352 147.321C15.7573 147.321 15.5321 147.547 15.5321 147.824L16.5382 147.824ZM15.5321 157.616C15.5321 157.894 15.7573 158.119 16.0352 158.119C16.313 158.119 16.5382 157.894 16.5382 157.616L15.5321 157.616ZM16.5382 167.408C16.5382 167.131 16.313 166.905 16.0352 166.905C15.7573 166.905 15.5321 167.131 15.5321 167.408L16.5382 167.408ZM15.5321 177.2C15.5321 177.478 15.7573 177.703 16.0352 177.703C16.313 177.703 16.5382 177.478 16.5382 177.2L15.5321 177.2ZM16.5382 186.992C16.5382 186.714 16.313 186.489 16.0351 186.489C15.7573 186.489 15.5321 186.714 15.5321 186.992L16.5382 186.992ZM15.5321 196.784C15.5321 197.062 15.7573 197.287 16.0351 197.287C16.313 197.287 16.5382 197.062 16.5382 196.784L15.5321 196.784ZM16.5382 206.576C16.5382 206.298 16.313 206.073 16.0351 206.073C15.7573 206.073 15.5321 206.298 15.5321 206.576L16.5382 206.576ZM15.5321 216.368C15.5321 216.646 15.7573 216.871 16.0351 216.871C16.313 216.871 16.5382 216.646 16.5382 216.368L15.5321 216.368ZM16.5382 226.16C16.5382 225.882 16.313 225.657 16.0351 225.657C15.7573 225.657 15.5321 225.882 15.5321 226.16L16.5382 226.16ZM15.5321 235.952C15.5321 236.23 15.7573 236.455 16.0351 236.455C16.313 236.455 16.5382 236.23 16.5382 235.952L15.5321 235.952ZM16.5382 245.744C16.5382 245.466 16.313 245.241 16.0351 245.241C15.7573 245.241 15.5321 245.466 15.5321 245.744L16.5382 245.744ZM15.5321 255.536C15.5321 255.814 15.7573 256.039 16.0351 256.039C16.313 256.039 16.5382 255.814 16.5382 255.536L15.5321 255.536ZM16.5382 265.328C16.5382 265.05 16.313 264.825 16.0351 264.825C15.7573 264.825 15.5321 265.05 15.5321 265.328L16.5382 265.328ZM15.5321 275.12C15.5321 275.398 15.7573 275.623 16.0351 275.623C16.313 275.623 16.5382 275.398 16.5382 275.12L15.5321 275.12ZM16.5382 284.912C16.5382 284.634 16.313 284.409 16.0351 284.409C15.7573 284.409 15.5321 284.634 15.5321 284.912L16.5382 284.912ZM15.5321 294.704C15.5321 294.982 15.7573 295.207 16.0351 295.207C16.313 295.207 16.5382 294.982 16.5382 294.704L15.5321 294.704ZM16.5382 304.496C16.5382 304.218 16.313 303.993 16.0351 303.993C15.7573 303.993 15.5321 304.218 15.5321 304.496L16.5382 304.496ZM15.5321 314.288C15.5321 314.566 15.7573 314.791 16.0351 314.791C16.3129 314.791 16.5382 314.566 16.5382 314.288L15.5321 314.288ZM16.5382 324.08C16.5382 323.802 16.3129 323.577 16.0351 323.577C15.7573 323.577 15.5321 323.802 15.5321 324.08L16.5382 324.08ZM15.5321 35.2168L15.5321 40.1128L16.5382 40.1128L16.5382 35.2168L15.5321 35.2168ZM15.5321 49.9047L15.5321 59.6967L16.5382 59.6967L16.5382 49.9047L15.5321 49.9047ZM15.5321 69.4887L15.5321 79.2807L16.5382 79.2807L16.5382 69.4887L15.5321 69.4887ZM15.5321 89.0726L15.5321 98.8646L16.5382 98.8646L16.5382 89.0726L15.5321 89.0726ZM15.5321 108.657L15.5321 118.449L16.5382 118.449L16.5382 108.657L15.5321 108.657ZM15.5321 128.241L15.5321 138.032L16.5382 138.032L16.5382 128.241L15.5321 128.241ZM15.5321 147.824L15.5321 157.616L16.5382 157.616L16.5382 147.824L15.5321 147.824ZM15.5321 167.408L15.5321 177.2L16.5382 177.2L16.5382 167.408L15.5321 167.408ZM15.5321 186.992L15.5321 196.784L16.5382 196.784L16.5382 186.992L15.5321 186.992ZM15.5321 206.576L15.5321 216.368L16.5382 216.368L16.5382 206.576L15.5321 206.576ZM15.5321 226.16L15.5321 235.952L16.5382 235.952L16.5382 226.16L15.5321 226.16ZM15.5321 245.744L15.5321 255.536L16.5382 255.536L16.5382 245.744L15.5321 245.744ZM15.5321 265.328L15.5321 275.12L16.5382 275.12L16.5382 265.328L15.5321 265.328ZM15.5321 284.912L15.5321 294.704L16.5382 294.704L16.5382 284.912L15.5321 284.912ZM15.5321 304.496L15.5321 314.288L16.5382 314.288L16.5382 304.496L15.5321 304.496ZM15.5321 324.08L15.5321 328.976L16.5382 328.976L16.5382 324.08L15.5321 324.08Z" fill="#FE4E26"/>
<circle cx="17.0495" cy="33.2019" r="16.0964" fill="#FE4E26"/>
<path d="M13.2375 27.9894L16.1815 26.9494H17.7815V38.1494H15.9415V28.9174L13.6855 29.5574L13.2375 27.9894Z" fill="#FFF8F6"/>
<circle cx="17.0495" cy="179.073" r="16.0964" fill="#FE4E26"/>
<path d="M20.9015 184.02H13.5255V182.58L17.4295 178.596C18.3789 177.647 18.8535 176.826 18.8535 176.132C18.8535 175.599 18.6935 175.178 18.3735 174.868C18.0535 174.559 17.6375 174.404 17.1255 174.404C16.1869 174.404 15.4935 174.868 15.0455 175.796L13.4935 174.884C13.8349 174.148 14.3255 173.588 14.9655 173.204C15.6055 172.81 16.3202 172.612 17.1095 172.612C18.1015 172.612 18.9442 172.922 19.6375 173.54C20.3415 174.17 20.6935 175.012 20.6935 176.068C20.6935 177.199 20.0589 178.415 18.7895 179.716L16.2615 182.244H20.9015V184.02Z" fill="#FFF8F6"/>
<circle cx="17.0495" cy="324.948" r="16.0964" fill="#FE4E26"/>
<path d="M20.6455 321.269L18.3735 324.277C19.2055 324.469 19.8669 324.853 20.3575 325.429C20.8589 325.994 21.1095 326.688 21.1095 327.509C21.1095 328.629 20.7309 329.509 19.9735 330.149C19.2269 330.789 18.2989 331.109 17.1895 331.109C16.3149 331.109 15.5415 330.912 14.8695 330.517C14.1975 330.112 13.7175 329.536 13.4295 328.789L14.9975 327.877C15.3282 328.837 16.0589 329.317 17.1895 329.317C17.8295 329.317 18.3362 329.157 18.7095 328.837C19.0829 328.506 19.2695 328.064 19.2695 327.509C19.2695 326.954 19.0829 326.517 18.7095 326.197C18.3362 325.877 17.8295 325.717 17.1895 325.717H16.7735L16.0375 324.613L18.4535 321.429H13.7655V319.701H20.6455V321.269Z" fill="#FFF8F6"/>
</svg>
